<svg data-v-423bf9ae="" xmlns="http://www.w3.org/2000/svg" viewBox="0 0 425.761400685739 210" class="iconAboveSlogan"><!----><!----><!----><g data-v-423bf9ae="" id="90228ef4-c5df-4c27-8d71-fc0dc4642754" fill="black" transform="matrix(5.819592391658763,0,0,5.819592391658763,-1.2221147120934575,60.480898592298885)"><path d="M6.30 17.99L6.30 17.99Q6.61 17.99 6.61 18.27L6.61 18.27Q6.61 18.43 6.51 18.53L6.51 18.53Q5.61 19.50 3.90 19.50Q2.20 19.50 1.21 18.58Q0.21 17.66 0.21 16.14L0.21 16.14Q0.21 15.15 0.69 14.35Q1.18 13.54 2.01 13.09Q2.84 12.64 3.85 12.64L3.85 12.64Q5.26 12.64 6.03 13.37L6.03 13.37Q6.43 13.76 6.43 14.28L6.43 14.28Q6.43 14.59 6.18 14.80Q5.92 15.01 5.56 15.01Q5.21 15.01 5.05 14.95L5.05 14.95Q5.00 14.18 4.73 13.76Q4.46 13.35 3.83 13.35L3.83 13.35Q2.79 13.35 2.20 14.01Q1.61 14.68 1.61 15.80Q1.61 16.92 2.36 17.75Q3.12 18.57 4.27 18.57L4.27 18.57Q4.94 18.57 5.93 18.09L5.93 18.09Q6.14 17.99 6.30 17.99ZM9.31 13.59L9.31 16.36Q9.31 17.29 9.46 17.68Q9.61 18.07 9.80 18.23L9.80 18.23Q10.20 18.57 11.13 18.57Q12.05 18.57 12.48 18.10Q12.91 17.62 12.91 16.51L12.91 16.51L12.91 14.20Q12.91 13.69 12.41 13.66L12.41 13.66Q12.02 13.64 11.98 13.57Q11.94 13.51 11.94 13.43L11.94 13.43Q11.94 13.08 12.34 12.91Q12.74 12.73 13.29 12.73Q13.84 12.73 14.03 12.88Q14.23 13.03 14.23 13.59L14.23 13.59L14.23 17.96Q14.23 18.43 14.72 18.46L14.72 18.46Q15.07 18.48 15.15 18.54Q15.22 18.59 15.22 18.77Q15.22 18.96 15.00 19.12L15.00 19.12Q14.59 19.39 13.95 19.39Q13.30 19.39 13.15 19.20Q13.00 19.00 13.00 18.30L13.00 18.30Q12.17 19.50 10.47 19.50L10.47 19.50Q9.12 19.50 8.56 18.78Q7.99 18.05 7.99 16.54L7.99 16.54L7.99 14.20Q7.99 13.69 7.51 13.66L7.51 13.66Q7.10 13.64 7.06 13.57Q7.02 13.51 7.02 13.43L7.02 13.43Q7.02 13.08 7.42 12.91Q7.81 12.73 8.36 12.73Q8.91 12.73 9.11 12.88Q9.31 13.03 9.31 13.59L9.31 13.59ZM21.72 16.36L21.72 16.36Q21.72 15.66 21.46 15.02Q21.21 14.37 20.70 13.94Q20.20 13.51 19.58 13.51L19.58 13.51Q18.72 13.51 18.00 14.18L18.00 14.18L18.00 17.94Q18.81 18.59 19.75 18.59Q20.69 18.59 21.21 17.97Q21.72 17.36 21.72 16.36ZM16.97 19.37L16.97 19.37Q16.70 19.37 16.70 18.75L16.70 18.75L16.70 10.79Q16.70 10.17 16.21 10.12L16.21 10.12Q16.16 10.12 16.08 10.11Q16.01 10.10 15.98 10.10Q15.94 10.10 15.89 10.09Q15.84 10.08 15.81 10.06Q15.79 10.05 15.77 10.03L15.77 10.03Q15.72 9.99 15.72 9.83Q15.72 9.67 15.93 9.50L15.93 9.50Q16.32 9.19 16.97 9.19L16.97 9.19Q17.66 9.19 17.77 9.27L17.77 9.27Q18.01 9.43 18.01 9.70L18.01 9.70L18.01 13.48Q19.02 12.61 20.32 12.61Q21.62 12.61 22.41 13.52Q23.20 14.42 23.20 15.89L23.20 15.89Q23.20 16.80 22.80 17.62Q22.40 18.43 21.68 18.94Q20.96 19.44 20.10 19.44L20.10 19.44Q18.87 19.44 17.71 18.67L17.71 18.67Q17.70 18.68 17.53 18.92L17.53 18.92Q17.19 19.37 16.97 19.37ZM24.88 18.57Q23.93 17.64 23.93 16.11Q23.93 14.57 24.89 13.61Q25.84 12.65 27.32 12.65L27.32 12.65Q28.49 12.65 29.29 13.40Q30.09 14.16 30.09 15.30L30.09 15.30Q30.09 15.85 29.22 15.85L29.22 15.85L25.26 15.85Q25.27 16.96 25.98 17.72Q26.68 18.48 27.75 18.48L27.75 18.48Q28.46 18.48 29.13 18.06L29.13 18.06Q29.49 17.84 29.59 17.84Q29.69 17.84 29.81 17.94Q29.94 18.04 29.94 18.18L29.94 18.18Q29.94 18.56 29.46 18.88Q28.98 19.20 28.40 19.35Q27.82 19.50 27.38 19.50L27.38 19.50Q25.83 19.50 24.88 18.57ZM28.83 15.13L28.83 15.13Q28.82 14.35 28.42 13.86Q28.03 13.36 27.27 13.36Q26.50 13.36 25.93 13.91Q25.36 14.46 25.33 15.16L25.33 15.16L26.93 15.16Q27.99 15.16 28.83 15.13ZM33.97 18.70L33.97 18.70Q35.51 18.70 35.51 17.75L35.51 17.75Q35.51 17.04 34.13 16.64L34.13 16.64Q33.87 16.56 33.50 16.46L33.50 16.46Q32.81 16.28 32.57 16.18L32.57 16.18Q31.96 15.95 31.55 15.50Q31.13 15.06 31.13 14.45L31.13 14.45Q31.13 13.67 31.88 13.15Q32.63 12.63 33.69 12.63L33.69 12.63Q34.72 12.63 35.62 13.00L35.62 13.00Q36.07 13.19 36.34 13.51Q36.62 13.84 36.62 14.20Q36.62 14.55 36.34 14.77Q36.05 14.98 35.75 14.98Q35.44 14.98 35.35 14.92Q35.25 14.86 35.25 14.65L35.25 14.65Q35.25 13.33 33.84 13.33L33.84 13.33Q33.26 13.33 32.83 13.59Q32.40 13.84 32.40 14.25L32.40 14.25Q32.40 14.90 33.74 15.27L33.74 15.27Q33.95 15.33 34.25 15.40Q34.56 15.48 34.81 15.56Q35.06 15.64 35.34 15.75Q35.62 15.85 35.92 16.02Q36.23 16.19 36.42 16.39L36.42 16.39Q36.87 16.84 36.87 17.48Q36.87 18.12 36.44 18.59L36.44 18.59Q35.58 19.50 33.97 19.50L33.97 19.50Q32.93 19.50 32.05 19.15L32.05 19.15Q31.60 18.98 31.32 18.66Q31.05 18.35 31.05 17.99Q31.05 17.64 31.27 17.44Q31.50 17.25 31.79 17.25Q32.07 17.25 32.28 17.42Q32.48 17.60 32.48 17.87Q32.48 18.13 32.43 18.43L32.43 18.43Q33.15 18.70 33.97 18.70ZM44.78 19.32L44.78 19.32L44.19 19.33Q43.29 19.33 43.08 19.05L43.08 19.05Q42.98 18.93 42.98 18.75Q42.98 18.58 43.12 18.51Q43.26 18.44 43.43 18.44Q43.59 18.43 43.73 18.33Q43.87 18.23 43.87 18.01L43.87 18.01L43.87 16.02Q43.87 14.77 43.57 14.17L43.57 14.17Q43.24 13.50 42.21 13.50L42.21 13.50Q41.11 13.50 40.67 14.19L40.67 14.19Q40.28 14.83 40.28 16.06L40.28 16.06L40.28 18.01Q40.28 18.41 40.72 18.43Q41.16 18.46 41.16 18.79L41.16 18.79Q41.16 19.16 40.74 19.25L40.74 19.25Q40.44 19.32 39.89 19.32L39.89 19.32L39.30 19.33Q38.40 19.33 38.19 19.05L38.19 19.05Q38.10 18.93 38.10 18.75Q38.10 18.58 38.23 18.51Q38.37 18.44 38.54 18.44Q38.71 18.43 38.84 18.33Q38.98 18.23 38.98 18.01L38.98 18.01L38.98 10.57Q38.98 10.17 38.49 10.09L38.49 10.09Q38.14 10.04 38.07 9.97Q38.00 9.91 38.00 9.75Q38.00 9.60 38.14 9.48Q38.29 9.36 38.52 9.30L38.52 9.30Q38.93 9.19 39.44 9.19L39.44 9.19Q40.28 9.19 40.28 9.70L40.28 9.70L40.28 13.67Q41.21 12.62 42.64 12.62Q44.06 12.62 44.61 13.35Q45.17 14.08 45.17 15.55L45.17 15.55L45.17 18.01Q45.17 18.41 45.61 18.43Q46.05 18.46 46.05 18.79L46.05 18.79Q46.05 19.16 45.64 19.25L45.64 19.25Q45.32 19.32 44.78 19.32ZM48.03 14.98Q47.77 14.98 47.45 14.78Q47.13 14.58 47.13 14.26Q47.13 13.93 47.32 13.64Q47.50 13.36 47.80 13.18Q48.09 13.00 48.48 12.87L48.48 12.87Q49.19 12.65 50.01 12.65L50.01 12.65Q51.39 12.65 52.02 13.26Q52.64 13.87 52.64 15.28L52.64 15.28L52.64 17.29Q52.64 18.03 52.82 18.21L52.82 18.21Q52.87 18.26 53.12 18.33L53.12 18.33Q53.82 18.55 53.82 18.67L53.82 18.67Q53.82 19.39 52.35 19.39L52.35 19.39Q51.80 19.39 51.63 19.14Q51.46 18.89 51.45 18.25L51.45 18.25Q51.14 18.80 50.51 19.14Q49.88 19.48 49.16 19.48Q48.45 19.48 47.95 19.30Q47.45 19.11 47.14 18.70Q46.83 18.29 46.83 17.81Q46.83 17.33 46.94 17.04Q47.04 16.75 47.21 16.55Q47.37 16.35 47.66 16.19Q47.94 16.04 48.19 15.94Q48.43 15.85 48.82 15.78L48.82 15.78Q49.40 15.67 49.79 15.62Q50.18 15.58 50.19 15.57L50.19 15.57Q50.23 15.57 50.66 15.52Q51.08 15.48 51.33 15.34L51.33 15.34Q51.33 14.04 50.98 13.64L50.98 13.64Q50.67 13.30 49.97 13.30Q49.27 13.30 48.91 13.66Q48.56 14.02 48.56 14.80L48.56 14.80L48.57 14.95Q48.28 14.98 48.03 14.98ZM51.33 15.96L51.33 15.96Q50.87 16.13 50.28 16.19Q49.70 16.26 49.36 16.34Q49.03 16.43 48.80 16.56L48.80 16.56Q48.28 16.86 48.28 17.60L48.28 17.60Q48.28 18.77 49.65 18.77L49.65 18.77Q50.83 18.77 51.15 17.64L51.15 17.64Q51.33 17.00 51.33 15.96ZM56.51 19.32L56.51 19.32L55.92 19.33Q55.03 19.33 54.82 19.05L54.82 19.05Q54.72 18.93 54.72 18.75Q54.72 18.58 54.86 18.51Q55.00 18.44 55.16 18.44Q55.33 18.43 55.47 18.33Q55.60 18.23 55.60 18.01L55.60 18.01L55.60 14.64Q55.60 14.03 55.46 13.88Q55.31 13.74 55.21 13.70Q55.11 13.66 54.90 13.60Q54.69 13.54 54.55 13.47Q54.42 13.41 54.42 13.29L54.42 13.29Q54.42 12.74 55.89 12.74L55.89 12.74Q56.51 12.74 56.68 12.96Q56.85 13.17 56.85 13.95L56.85 13.95Q57.08 13.36 57.62 13.03Q58.15 12.69 58.72 12.69Q59.28 12.69 59.65 12.94Q60.01 13.18 60.01 13.55Q60.01 13.92 59.77 14.15Q59.53 14.37 59.19 14.37Q58.84 14.37 58.59 14.18Q58.34 14 58.26 13.71L58.26 13.71Q58.08 13.68 57.97 13.68L57.97 13.68Q56.90 13.68 56.90 16.13L56.90 16.13L56.90 18.01Q56.90 18.41 57.34 18.43Q57.78 18.46 57.78 18.79L57.78 18.79Q57.78 19.16 57.37 19.25L57.37 19.25Q57.06 19.32 56.51 19.32ZM61.38 18.57Q60.44 17.64 60.44 16.11Q60.44 14.57 61.39 13.61Q62.34 12.65 63.82 12.65L63.82 12.65Q64.99 12.65 65.79 13.40Q66.60 14.16 66.60 15.30L66.60 15.30Q66.60 15.85 65.72 15.85L65.72 15.85L61.76 15.85Q61.78 16.96 62.48 17.72Q63.18 18.48 64.26 18.48L64.26 18.48Q64.97 18.48 65.64 18.06L65.64 18.06Q65.99 17.84 66.09 17.84Q66.19 17.84 66.32 17.94Q66.45 18.04 66.45 18.18L66.45 18.18Q66.45 18.56 65.96 18.88Q65.48 19.20 64.90 19.35Q64.32 19.50 63.88 19.50L63.88 19.50Q62.33 19.50 61.38 18.57ZM65.34 15.13L65.34 15.13Q65.32 14.35 64.93 13.86Q64.53 13.36 63.77 13.36Q63.01 13.36 62.44 13.91Q61.87 14.46 61.83 15.16L61.83 15.16L63.43 15.16Q64.50 15.16 65.34 15.13ZM70.48 18.70L70.48 18.70Q72.02 18.70 72.02 17.75L72.02 17.75Q72.02 17.04 70.63 16.64L70.63 16.64Q70.37 16.56 70 16.46L70 16.46Q69.31 16.28 69.07 16.18L69.07 16.18Q68.47 15.95 68.05 15.50Q67.63 15.06 67.63 14.45L67.63 14.45Q67.63 13.67 68.38 13.15Q69.13 12.63 70.19 12.63L70.19 12.63Q71.22 12.63 72.13 13.00L72.13 13.00Q72.57 13.19 72.85 13.51Q73.12 13.84 73.12 14.20Q73.12 14.55 72.84 14.77Q72.56 14.98 72.25 14.98Q71.95 14.98 71.85 14.92Q71.75 14.86 71.75 14.65L71.75 14.65Q71.75 13.33 70.35 13.33L70.35 13.33Q69.77 13.33 69.34 13.59Q68.91 13.84 68.91 14.25L68.91 14.25Q68.91 14.90 70.25 15.27L70.25 15.27Q70.46 15.33 70.76 15.40Q71.06 15.48 71.31 15.56Q71.57 15.64 71.84 15.75Q72.12 15.85 72.43 16.02Q72.73 16.19 72.93 16.39L72.93 16.39Q73.37 16.84 73.37 17.48Q73.37 18.12 72.94 18.59L72.94 18.59Q72.08 19.50 70.48 19.50L70.48 19.50Q69.43 19.50 68.55 19.15L68.55 19.15Q68.10 18.98 67.83 18.66Q67.55 18.35 67.55 17.99Q67.55 17.64 67.78 17.44Q68.00 17.25 68.29 17.25Q68.58 17.25 68.78 17.42Q68.98 17.60 68.98 17.87Q68.98 18.13 68.93 18.43L68.93 18.43Q69.66 18.70 70.48 18.70Z"></path></g><!----><g data-v-423bf9ae="" id="947963ba-b64b-4c74-ae99-476cdcc1a6c0" transform="matrix(1.0591556125217014,0,0,1.0591556125217014,160.85120973960016,-1.6197833447034)" stroke="none" fill="black"><switch><g><path d="M81.425 82.346l13.766-6.907V60.071l-13.766 6.908zM81.425 65.326l13.766-6.907V43.052l-13.766 6.907zM63.746 9.241L49.9 2.338 36.134 9.245l13.846 6.903zM48.485 16.899L34.638 9.996l-13.766 6.907 13.847 6.903zM65.351 23.811l13.766-6.908-13.856-6.907-13.766 6.907zM36.234 24.561l13.856 6.908 13.766-6.908L50 17.654zM80.623 17.654l-13.766 6.907 13.856 6.907 13.766-6.907zM19.373 17.654L5.607 24.561l13.847 6.903 13.766-6.907zM34.734 25.312l-13.766 6.907 13.856 6.908 13.766-6.908zM50.902 97.662l13.766-6.907V75.388l-13.766 6.907zM50.902 80.642l13.766-6.907V58.368l-13.766 6.907zM50.099 32.97l-13.766 6.907 13.856 6.907 13.766-6.907zM4.809 75.439l13.847 6.903V66.975L4.809 60.072zM4.809 58.419l13.847 6.903V49.955L4.809 43.052zM4.809 41.323l13.847 6.903V32.859L4.809 25.956zM20.171 83.097l13.856 6.907V74.637L20.171 67.73zM20.171 66.077l13.856 6.908V57.617L20.171 50.71zM20.171 48.981l13.856 6.907V40.521l-13.856-6.907zM35.532 90.755l13.856 6.907V82.295l-13.856-6.907zM35.532 73.735l13.856 6.907V65.275l-13.856-6.907zM35.532 56.639l13.856 6.907V48.179l-13.856-6.907zM66.163 90.004l13.766-6.907V67.729l-13.766 6.908zM66.163 72.984l13.766-6.907V50.71l-13.766 6.907zM65.361 25.312l-13.766 6.907 13.856 6.907 13.766-6.907zM81.425 33.09v15.367l13.766-6.907V26.183zM50.902 63.546l13.766-6.907V41.272l-13.766 6.907zM66.163 56.115l13.766-6.907V33.841l-13.766 6.907z"></path></g></switch></g><!----><g data-v-423bf9ae="" id="ed2d946f-f87b-4c91-90fc-500391e03f5a" fill="black" transform="matrix(1.8940687908570575,0,0,1.8940687908570575,53.06231341555056,196.789270287963)"><path d="M4.25 10.47L4.25 10.47Q3.41 10.47 2.94 10.68L2.94 10.68Q2.08 11.08 2.08 11.73L2.08 11.73Q2.08 12.08 2.28 12.28L2.28 12.28Q2.80 12.84 3.66 13.22L3.66 13.22Q4.17 13.45 5.14 13.80Q6.12 14.16 6.46 14.31Q6.80 14.47 7.22 14.74Q7.64 15.00 7.92 15.29L7.92 15.29Q8.57 15.98 8.57 16.87L8.57 16.87Q8.57 17.51 8.23 18.02Q7.88 18.53 7.31 18.84L7.31 18.84Q6.13 19.48 4.61 19.48L4.61 19.48Q2.58 19.48 1.29 18.77L1.29 18.77Q0.85 18.53 0.58 18.16Q0.31 17.78 0.31 17.35Q0.31 16.93 0.57 16.68Q0.83 16.43 1.31 16.43Q1.79 16.43 2.06 16.77Q2.33 17.10 2.33 17.64L2.33 17.64Q2.33 17.86 2.29 18.10L2.29 18.10Q3.33 18.63 4.51 18.63L4.51 18.63Q5.56 18.63 6.30 18.32L6.30 18.32Q7.14 17.96 7.14 17.06L7.14 17.06Q7.14 16.13 5.26 15.41L5.26 15.41Q4.95 15.29 4.29 15.07L4.29 15.07Q2.95 14.60 2.28 14.25L2.28 14.25Q0.62 13.37 0.62 12.05L0.62 12.05Q0.62 11.43 0.95 10.94Q1.29 10.46 1.85 10.18L1.85 10.18Q2.98 9.62 4.50 9.62L4.50 9.62Q6.28 9.62 7.38 10.21L7.38 10.21Q7.77 10.42 8.01 10.76Q8.25 11.10 8.25 11.53Q8.25 11.96 7.95 12.23Q7.66 12.51 7.22 12.51Q6.78 12.51 6.58 12.47L6.58 12.47Q6.49 11.27 6.02 10.87Q5.54 10.47 4.25 10.47ZM16.02 19.32L16.02 19.32L15.44 19.33Q14.54 19.33 14.33 19.05L14.33 19.05Q14.23 18.93 14.23 18.75Q14.23 18.58 14.37 18.51Q14.51 18.44 14.67 18.44Q14.84 18.43 14.98 18.33Q15.11 18.23 15.11 18.01L15.11 18.01L15.12 16.02Q15.12 14.77 14.82 14.17L14.82 14.17Q14.49 13.50 13.45 13.50L13.45 13.50Q12.36 13.50 11.92 14.19L11.92 14.19Q11.53 14.83 11.53 16.06L11.53 16.06L11.53 18.01Q11.53 18.41 11.97 18.43Q12.41 18.46 12.41 18.79L12.41 18.79Q12.41 19.16 11.99 19.25L11.99 19.25Q11.69 19.32 11.14 19.32L11.14 19.32L10.55 19.33Q9.65 19.33 9.44 19.05L9.44 19.05Q9.34 18.93 9.34 18.75Q9.34 18.58 9.48 18.51Q9.62 18.44 9.79 18.44Q9.95 18.43 10.09 18.33Q10.23 18.23 10.23 18.01L10.23 18.01L10.23 10.57Q10.23 10.17 9.73 10.09L9.73 10.09Q9.39 10.04 9.32 9.97Q9.25 9.91 9.25 9.75Q9.25 9.60 9.39 9.48Q9.54 9.36 9.77 9.30L9.77 9.30Q10.18 9.19 10.68 9.19L10.68 9.19Q11.53 9.19 11.53 9.70L11.53 9.70L11.53 13.67Q12.46 12.62 13.88 12.62Q15.31 12.62 15.86 13.35Q16.42 14.08 16.42 15.55L16.42 15.55L16.41 18.01Q16.41 18.41 16.85 18.43Q17.29 18.46 17.29 18.79L17.29 18.79Q17.29 19.16 16.88 19.25L16.88 19.25Q16.57 19.32 16.02 19.32ZM19.27 14.98Q19.02 14.98 18.70 14.78Q18.38 14.58 18.38 14.26Q18.38 13.93 18.57 13.64Q18.75 13.36 19.04 13.18Q19.34 13.00 19.73 12.87L19.73 12.87Q20.44 12.65 21.26 12.65L21.26 12.65Q22.64 12.65 23.27 13.26Q23.89 13.87 23.89 15.28L23.89 15.28L23.88 17.29Q23.88 18.03 24.07 18.21L24.07 18.21Q24.12 18.26 24.37 18.33L24.37 18.33Q25.07 18.55 25.07 18.67L25.07 18.67Q25.07 19.39 23.60 19.39L23.60 19.39Q23.04 19.39 22.88 19.14Q22.71 18.89 22.70 18.25L22.70 18.25Q22.39 18.80 21.76 19.14Q21.13 19.48 20.41 19.48Q19.69 19.48 19.20 19.30Q18.70 19.11 18.39 18.70Q18.07 18.29 18.07 17.81Q18.07 17.33 18.18 17.04Q18.29 16.75 18.46 16.55Q18.62 16.35 18.90 16.19Q19.19 16.04 19.43 15.94Q19.68 15.85 20.07 15.78L20.07 15.78Q20.64 15.67 21.03 15.62Q21.42 15.58 21.44 15.57L21.44 15.57Q21.48 15.57 21.91 15.52Q22.33 15.48 22.58 15.34L22.58 15.34Q22.58 14.04 22.23 13.64L22.23 13.64Q21.92 13.30 21.22 13.30Q20.51 13.30 20.16 13.66Q19.81 14.02 19.81 14.80L19.81 14.80L19.82 14.95Q19.53 14.98 19.27 14.98ZM22.58 15.96L22.58 15.96Q22.11 16.13 21.53 16.19Q20.95 16.26 20.61 16.34Q20.28 16.43 20.05 16.56L20.05 16.56Q19.53 16.86 19.53 17.60L19.53 17.60Q19.53 18.77 20.90 18.77L20.90 18.77Q22.08 18.77 22.39 17.64L22.39 17.64Q22.58 17.00 22.58 15.96ZM27.76 19.32L27.76 19.32L27.17 19.33Q26.28 19.33 26.07 19.05L26.07 19.05Q25.97 18.93 25.97 18.75Q25.97 18.58 26.11 18.51Q26.24 18.44 26.41 18.44Q26.58 18.43 26.71 18.33Q26.85 18.23 26.85 18.01L26.85 18.01L26.85 14.64Q26.85 14.03 26.70 13.88Q26.56 13.74 26.46 13.70Q26.36 13.66 26.15 13.60Q25.94 13.54 25.80 13.47Q25.67 13.41 25.67 13.29L25.67 13.29Q25.67 12.74 27.14 12.74L27.14 12.74Q27.76 12.74 27.93 12.96Q28.10 13.17 28.10 13.95L28.10 13.95Q28.33 13.36 28.86 13.03Q29.40 12.69 29.97 12.69Q30.53 12.69 30.90 12.94Q31.26 13.18 31.26 13.55Q31.26 13.92 31.02 14.15Q30.78 14.37 30.43 14.37Q30.08 14.37 29.84 14.18Q29.59 14 29.51 13.71L29.51 13.71Q29.33 13.68 29.22 13.68L29.22 13.68Q28.15 13.68 28.15 16.13L28.15 16.13L28.15 18.01Q28.15 18.41 28.59 18.43Q29.03 18.46 29.03 18.79L29.03 18.79Q29.03 19.16 28.62 19.25L28.62 19.25Q28.31 19.32 27.76 19.32ZM32.63 18.57Q31.68 17.64 31.68 16.11Q31.68 14.57 32.64 13.61Q33.59 12.65 35.07 12.65L35.07 12.65Q36.24 12.65 37.04 13.40Q37.84 14.16 37.84 15.30L37.84 15.30Q37.84 15.85 36.97 15.85L36.97 15.85L33.01 15.85Q33.02 16.96 33.73 17.72Q34.43 18.48 35.51 18.48L35.51 18.48Q36.22 18.48 36.89 18.06L36.89 18.06Q37.24 17.84 37.34 17.84Q37.44 17.84 37.57 17.94Q37.69 18.04 37.69 18.18L37.69 18.18Q37.69 18.56 37.21 18.88Q36.73 19.20 36.15 19.35Q35.57 19.50 35.13 19.50L35.13 19.50Q33.58 19.50 32.63 18.57ZM36.59 15.13L36.59 15.13Q36.57 14.35 36.18 13.86Q35.78 13.36 35.02 13.36Q34.25 13.36 33.68 13.91Q33.11 14.46 33.08 15.16L33.08 15.16L34.68 15.16Q35.75 15.16 36.59 15.13ZM44.83 17.92L44.83 17.92Q46.56 14.26 46.56 14.05Q46.56 13.85 46.41 13.77Q46.26 13.69 46.08 13.67L46.08 13.67Q45.60 13.62 45.60 13.39L45.60 13.39Q45.60 12.77 47.07 12.77L47.07 12.77L47.35 12.77Q48.00 12.77 48.29 12.98Q48.57 13.19 48.57 13.38Q48.57 13.56 48.36 13.60L48.36 13.60Q47.94 13.68 47.73 13.84Q47.52 14 47.33 14.43Q47.13 14.86 46.66 15.90Q46.20 16.94 45.88 17.60L45.88 17.60L44.41 20.62Q44.18 21.11 43.81 21.43Q43.45 21.76 42.95 21.76Q42.45 21.76 42.08 21.51Q41.71 21.26 41.71 20.87Q41.71 20.47 41.94 20.24Q42.18 20.02 42.53 20.02Q42.89 20.02 43.17 20.19Q43.46 20.37 43.47 20.63L43.47 20.63Q44.02 19.76 44.20 19.28L44.20 19.28Q43.91 18.48 42.89 16.50Q41.87 14.51 41.76 14.28Q41.65 14.05 41.57 13.97Q41.49 13.88 41.37 13.82Q41.25 13.75 41.17 13.73Q41.08 13.70 40.90 13.65Q40.71 13.60 40.60 13.57Q40.49 13.54 40.49 13.36L40.49 13.36Q40.49 12.77 42.10 12.77L42.10 12.77Q43.09 12.77 43.37 12.87L43.37 12.87Q43.91 13.06 43.91 13.38L43.91 13.38Q43.91 13.59 43.51 13.67Q43.10 13.75 43.10 13.97L43.10 13.97Q43.10 13.99 43.34 14.62L43.34 14.62Q44.13 16.65 44.83 17.92ZM52.14 19.49L52.14 19.49Q50.59 19.49 49.65 18.52Q48.71 17.54 48.71 16.04L48.71 16.04Q48.71 15.05 49.21 14.27Q49.70 13.49 50.56 13.07Q51.41 12.66 52.45 12.66L52.45 12.66Q53.96 12.66 54.93 13.60Q55.91 14.53 55.91 16.02L55.91 16.02Q55.91 17.04 55.41 17.84Q54.91 18.63 54.05 19.06Q53.20 19.49 52.14 19.49ZM52.42 18.73Q53.44 18.73 54.01 18.04Q54.58 17.35 54.58 16.20Q54.58 15.05 53.92 14.22Q53.27 13.38 52.24 13.38Q51.21 13.38 50.65 14.09Q50.10 14.79 50.10 15.93Q50.10 17.08 50.75 17.90Q51.40 18.73 52.42 18.73ZM58.45 13.59L58.45 16.36Q58.45 17.29 58.60 17.68Q58.75 18.07 58.94 18.23L58.94 18.23Q59.34 18.57 60.26 18.57Q61.19 18.57 61.62 18.10Q62.05 17.62 62.05 16.51L62.05 16.51L62.05 14.20Q62.05 13.69 61.55 13.66L61.55 13.66Q61.15 13.64 61.11 13.57Q61.07 13.51 61.07 13.43L61.07 13.43Q61.07 13.08 61.47 12.91Q61.87 12.73 62.42 12.73Q62.97 12.73 63.17 12.88Q63.36 13.03 63.36 13.59L63.36 13.59L63.37 17.96Q63.37 18.43 63.86 18.46L63.86 18.46Q64.21 18.48 64.29 18.54Q64.36 18.59 64.36 18.77Q64.36 18.96 64.13 19.12L64.13 19.12Q63.73 19.39 63.09 19.39Q62.44 19.39 62.29 19.20Q62.13 19.00 62.13 18.30L62.13 18.30Q61.30 19.50 59.60 19.50L59.60 19.50Q58.26 19.50 57.69 18.78Q57.13 18.05 57.13 16.54L57.13 16.54L57.13 14.20Q57.13 13.69 56.64 13.66L56.64 13.66Q56.24 13.64 56.20 13.57Q56.16 13.51 56.16 13.43L56.16 13.43Q56.16 13.08 56.55 12.91Q56.95 12.73 57.50 12.73Q58.05 12.73 58.25 12.88Q58.45 13.03 58.45 13.59L58.45 13.59ZM67.15 19.32L67.15 19.32L66.56 19.33Q65.67 19.33 65.45 19.05L65.45 19.05Q65.36 18.93 65.36 18.75Q65.36 18.58 65.50 18.51Q65.63 18.44 65.80 18.44Q65.97 18.43 66.10 18.33Q66.24 18.23 66.24 18.01L66.24 18.01L66.24 14.64Q66.24 14.03 66.09 13.88Q65.95 13.74 65.85 13.70Q65.75 13.66 65.54 13.60Q65.32 13.54 65.19 13.47Q65.06 13.41 65.06 13.29L65.06 13.29Q65.06 12.74 66.53 12.74L66.53 12.74Q67.15 12.74 67.32 12.96Q67.48 13.17 67.48 13.95L67.48 13.95Q67.72 13.36 68.25 13.03Q68.79 12.69 69.35 12.69Q69.92 12.69 70.28 12.94Q70.65 13.18 70.65 13.55Q70.65 13.92 70.41 14.15Q70.17 14.37 69.82 14.37Q69.47 14.37 69.22 14.18Q68.97 14 68.90 13.71L68.90 13.71Q68.72 13.68 68.61 13.68L68.61 13.68Q67.54 13.68 67.54 16.13L67.54 16.13L67.54 18.01Q67.54 18.41 67.98 18.43Q68.42 18.46 68.42 18.79L68.42 18.79Q68.42 19.16 68.01 19.25L68.01 19.25Q67.70 19.32 67.15 19.32ZM76.84 18.70L76.84 18.70Q78.38 18.70 78.38 17.75L78.38 17.75Q78.38 17.04 76.99 16.64L76.99 16.64Q76.73 16.56 76.36 16.46L76.36 16.46Q75.67 16.28 75.43 16.18L75.43 16.18Q74.83 15.95 74.42 15.50Q74.00 15.06 74.00 14.45L74.00 14.45Q74.00 13.67 74.75 13.15Q75.50 12.63 76.56 12.63L76.56 12.63Q77.59 12.63 78.49 13.00L78.49 13.00Q78.93 13.19 79.21 13.51Q79.49 13.84 79.49 14.20Q79.49 14.55 79.20 14.77Q78.92 14.98 78.62 14.98Q78.31 14.98 78.21 14.92Q78.11 14.86 78.11 14.65L78.11 14.65Q78.11 13.33 76.71 13.33L76.71 13.33Q76.13 13.33 75.70 13.59Q75.27 13.84 75.27 14.25L75.27 14.25Q75.27 14.90 76.61 15.27L76.61 15.27Q76.82 15.33 77.12 15.40Q77.42 15.48 77.68 15.56Q77.93 15.64 78.21 15.75Q78.48 15.85 78.79 16.02Q79.10 16.19 79.29 16.39L79.29 16.39Q79.73 16.84 79.73 17.48Q79.73 18.12 79.30 18.59L79.30 18.59Q78.45 19.50 76.84 19.50L76.84 19.50Q75.80 19.50 74.92 19.15L74.92 19.15Q74.46 18.98 74.19 18.66Q73.92 18.35 73.92 17.99Q73.92 17.64 74.14 17.44Q74.37 17.25 74.66 17.25Q74.94 17.25 75.14 17.42Q75.35 17.60 75.35 17.87Q75.35 18.13 75.30 18.43L75.30 18.43Q76.02 18.70 76.84 18.70ZM84.06 19.49L84.06 19.49Q82.52 19.49 81.57 18.52Q80.63 17.54 80.63 16.04L80.63 16.04Q80.63 15.05 81.13 14.27Q81.63 13.49 82.48 13.07Q83.33 12.66 84.38 12.66L84.38 12.66Q85.88 12.66 86.86 13.60Q87.83 14.53 87.83 16.02L87.83 16.02Q87.83 17.04 87.33 17.84Q86.83 18.63 85.98 19.06Q85.12 19.49 84.06 19.49ZM84.34 18.73Q85.36 18.73 85.93 18.04Q86.50 17.35 86.50 16.20Q86.50 15.05 85.85 14.22Q85.19 13.38 84.16 13.38Q83.13 13.38 82.58 14.09Q82.02 14.79 82.02 15.93Q82.02 17.08 82.67 17.90Q83.32 18.73 84.34 18.73ZM90.44 19.32L90.44 19.32L89.85 19.33Q88.96 19.33 88.74 19.05L88.74 19.05Q88.65 18.93 88.65 18.75Q88.65 18.58 88.79 18.51Q88.92 18.44 89.09 18.44Q89.25 18.43 89.39 18.33Q89.52 18.23 89.52 18.01L89.52 18.01L89.52 10.79Q89.52 10.17 89.03 10.12L89.03 10.12Q88.98 10.12 88.91 10.11Q88.83 10.10 88.80 10.10Q88.76 10.10 88.71 10.09Q88.66 10.08 88.64 10.06Q88.61 10.05 88.59 10.03L88.59 10.03Q88.55 9.99 88.55 9.83Q88.55 9.67 88.76 9.50L88.76 9.50Q89.14 9.19 89.79 9.19L89.79 9.19Q90.48 9.19 90.60 9.27L90.60 9.27Q90.83 9.43 90.83 9.70L90.83 9.70L90.83 18.01Q90.83 18.41 91.27 18.43Q91.71 18.46 91.71 18.79L91.71 18.79Q91.71 19.16 91.30 19.25L91.30 19.25Q90.99 19.32 90.44 19.32ZM93.47 12.75L93.47 12.75Q95.43 12.75 95.43 13.23L95.43 13.23Q95.43 13.42 95.00 13.53Q94.56 13.64 94.56 13.82L94.56 13.82Q94.56 14.05 96.36 17.96L96.36 17.96Q98.14 13.99 98.14 13.86Q98.14 13.72 98 13.64Q97.86 13.57 97.70 13.53L97.70 13.53Q97.27 13.42 97.27 13.23L97.27 13.23Q97.27 13.00 97.76 12.88Q98.25 12.75 98.68 12.75Q99.11 12.75 99.45 12.79Q99.78 12.82 100.08 12.94Q100.39 13.05 100.39 13.21L100.39 13.21Q100.39 13.51 99.96 13.57Q99.52 13.64 99.37 13.73Q99.22 13.82 99.08 14.11L99.08 14.11L97.03 18.51Q96.71 19.21 96.64 19.28Q96.56 19.35 96.50 19.40L96.50 19.40Q96.37 19.49 96.21 19.49Q96.04 19.49 95.95 19.45Q95.86 19.41 95.81 19.38Q95.76 19.35 95.70 19.24Q95.63 19.13 95.62 19.09Q95.60 19.04 95.54 18.90L95.54 18.90L93.19 14.13Q93.04 13.81 92.91 13.72Q92.79 13.64 92.35 13.57Q91.91 13.51 91.91 13.20L91.91 13.20Q91.91 13.00 92.48 12.87Q93.05 12.75 93.47 12.75ZM101.50 18.57Q100.55 17.64 100.55 16.11Q100.55 14.57 101.50 13.61Q102.46 12.65 103.93 12.65L103.93 12.65Q105.10 12.65 105.91 13.40Q106.71 14.16 106.71 15.30L106.71 15.30Q106.71 15.85 105.83 15.85L105.83 15.85L101.88 15.85Q101.89 16.96 102.59 17.72Q103.30 18.48 104.37 18.48L104.37 18.48Q105.08 18.48 105.75 18.06L105.75 18.06Q106.11 17.84 106.21 17.84Q106.31 17.84 106.43 17.94Q106.56 18.04 106.56 18.18L106.56 18.18Q106.56 18.56 106.08 18.88Q105.59 19.20 105.01 19.35Q104.43 19.50 104.00 19.50L104.00 19.50Q102.44 19.50 101.50 18.57ZM105.45 15.13L105.45 15.13Q105.44 14.35 105.04 13.86Q104.64 13.36 103.88 13.36Q103.12 13.36 102.55 13.91Q101.98 14.46 101.94 15.16L101.94 15.16L103.54 15.16Q104.61 15.16 105.45 15.13ZM110.59 18.70L110.59 18.70Q112.13 18.70 112.13 17.75L112.13 17.75Q112.13 17.04 110.74 16.64L110.74 16.64Q110.48 16.56 110.11 16.46L110.11 16.46Q109.42 16.28 109.18 16.18L109.18 16.18Q108.58 15.95 108.17 15.50Q107.75 15.06 107.75 14.45L107.75 14.45Q107.75 13.67 108.50 13.15Q109.25 12.63 110.30 12.63L110.30 12.63Q111.34 12.63 112.24 13.00L112.24 13.00Q112.68 13.19 112.96 13.51Q113.24 13.84 113.24 14.20Q113.24 14.55 112.95 14.77Q112.67 14.98 112.37 14.98Q112.06 14.98 111.96 14.92Q111.86 14.86 111.86 14.65L111.86 14.65Q111.86 13.33 110.46 13.33L110.46 13.33Q109.88 13.33 109.45 13.59Q109.02 13.84 109.02 14.25L109.02 14.25Q109.02 14.90 110.36 15.27L110.36 15.27Q110.57 15.33 110.87 15.40Q111.17 15.48 111.43 15.56Q111.68 15.64 111.96 15.75Q112.23 15.85 112.54 16.02Q112.85 16.19 113.04 16.39L113.04 16.39Q113.48 16.84 113.48 17.48Q113.48 18.12 113.05 18.59L113.05 18.59Q112.20 19.50 110.59 19.50L110.59 19.50Q109.55 19.50 108.66 19.15L108.66 19.15Q108.21 18.98 107.94 18.66Q107.67 18.35 107.67 17.99Q107.67 17.64 107.89 17.44Q108.12 17.25 108.40 17.25Q108.69 17.25 108.89 17.42Q109.09 17.60 109.09 17.87Q109.09 18.13 109.05 18.43L109.05 18.43Q109.77 18.70 110.59 18.70ZM117.93 10.74L117.93 10.74Q117.93 10.44 118.22 10.18Q118.51 9.91 118.85 9.91Q119.20 9.91 119.52 10.12Q119.85 10.34 119.85 10.68Q119.85 11.03 119.57 11.27Q119.30 11.50 118.90 11.50Q118.51 11.50 118.22 11.29Q117.93 11.07 117.93 10.74ZM119.36 19.32L119.36 19.32L118.77 19.33Q117.87 19.33 117.66 19.05L117.66 19.05Q117.56 18.93 117.56 18.75Q117.56 18.58 117.70 18.51Q117.84 18.44 118.01 18.44Q118.17 18.43 118.31 18.33Q118.45 18.23 118.45 18.01L118.45 18.01L118.45 14.33Q118.45 13.71 117.96 13.67L117.96 13.67Q117.91 13.66 117.84 13.65Q117.76 13.64 117.73 13.64Q117.69 13.64 117.64 13.63Q117.59 13.62 117.57 13.60Q117.54 13.59 117.52 13.57L117.52 13.57Q117.47 13.54 117.47 13.37Q117.47 13.21 117.67 13.04L117.67 13.04Q118.06 12.73 118.71 12.73L118.71 12.73Q119.31 12.73 119.42 12.78Q119.53 12.82 119.60 12.88L119.60 12.88Q119.75 12.97 119.75 13.24L119.75 13.24L119.75 18.01Q119.75 18.41 120.19 18.43Q120.63 18.46 120.63 18.79L120.63 18.79Q120.63 19.16 120.22 19.25L120.22 19.25Q119.90 19.32 119.36 19.32ZM123.63 19.32L123.63 19.32L123.04 19.33Q122.14 19.33 121.93 19.05L121.93 19.05Q121.84 18.93 121.84 18.75Q121.84 18.58 121.97 18.51Q122.11 18.44 122.28 18.44Q122.45 18.43 122.58 18.33Q122.72 18.23 122.72 18.01L122.72 18.01L122.72 14.11Q122.72 13.71 122.23 13.63L122.23 13.63Q121.88 13.58 121.81 13.51Q121.74 13.45 121.74 13.28Q121.74 13.11 121.98 12.97L121.98 12.97Q122.38 12.73 123.00 12.73Q123.61 12.73 123.78 12.90Q123.96 13.08 123.96 13.68L123.96 13.68Q124.89 12.62 126.53 12.62L126.53 12.62Q127.87 12.62 128.42 13.35Q128.98 14.08 128.98 15.55L128.98 15.55L128.98 18.01Q128.98 18.41 129.42 18.43Q129.86 18.46 129.86 18.79L129.86 18.79Q129.86 19.15 129.44 19.25L129.44 19.25Q129.12 19.32 128.57 19.32L128.57 19.32L127.98 19.33Q127.09 19.33 126.88 19.05L126.88 19.05Q126.78 18.93 126.78 18.75Q126.78 18.58 126.92 18.51Q127.05 18.44 127.22 18.44Q127.39 18.43 127.52 18.33Q127.66 18.23 127.66 18.01L127.66 18.01L127.66 16.02Q127.66 14.75 127.37 14.16L127.37 14.16Q127.04 13.50 126.05 13.50L126.05 13.50Q124.85 13.50 124.42 14.14L124.42 14.14Q124.02 14.74 124.02 16.06L124.02 16.06L124.02 18.01Q124.02 18.41 124.46 18.43Q124.90 18.46 124.90 18.79L124.90 18.79Q124.90 19.16 124.48 19.25L124.48 19.25Q124.18 19.32 123.63 19.32ZM138.35 14.18Q138.06 13.81 137.52 13.59Q136.99 13.36 136.32 13.36Q135.66 13.36 135.19 13.75L135.19 13.75Q134.29 14.49 134.29 15.95L134.29 15.95Q134.29 17.08 134.90 17.86Q135.52 18.64 136.50 18.64Q137.48 18.64 137.91 18.23Q138.35 17.83 138.35 16.88L138.35 16.88L138.35 14.18ZM136.46 12.63L136.46 12.63Q136.91 12.63 137.47 12.77Q138.02 12.92 138.35 13.08L138.35 13.08L138.35 10.79Q138.35 10.17 137.85 10.12L137.85 10.12Q137.81 10.12 137.73 10.11Q137.66 10.10 137.62 10.10Q137.59 10.10 137.54 10.09Q137.48 10.08 137.46 10.06Q137.44 10.05 137.42 10.03L137.42 10.03Q137.37 9.99 137.37 9.83Q137.37 9.67 137.58 9.50L137.58 9.50Q137.96 9.19 138.61 9.19L138.61 9.19Q139.30 9.19 139.42 9.27L139.42 9.27Q139.65 9.43 139.65 9.70L139.65 9.70L139.65 17.18Q139.65 17.94 139.82 18.16L139.82 18.16Q139.99 18.38 140.12 18.43Q140.25 18.48 140.35 18.51Q140.45 18.55 140.49 18.56Q140.53 18.58 140.59 18.62L140.59 18.62Q140.70 18.68 140.70 18.81L140.70 18.81Q140.70 19.10 140.40 19.23Q140.10 19.37 139.59 19.37Q139.09 19.37 138.87 19.17Q138.64 18.98 138.47 18.47L138.47 18.47Q137.91 19.46 136.13 19.46L136.13 19.46Q134.71 19.46 133.82 18.52Q132.92 17.58 132.92 16.07Q132.92 14.57 133.92 13.60Q134.91 12.63 136.46 12.63ZM142.27 18.57Q141.32 17.64 141.32 16.11Q141.32 14.57 142.27 13.61Q143.23 12.65 144.70 12.65L144.70 12.65Q145.87 12.65 146.68 13.40Q147.48 14.16 147.48 15.30L147.48 15.30Q147.48 15.85 146.60 15.85L146.60 15.85L142.65 15.85Q142.66 16.96 143.36 17.72Q144.07 18.48 145.14 18.48L145.14 18.48Q145.85 18.48 146.52 18.06L146.52 18.06Q146.88 17.84 146.98 17.84Q147.08 17.84 147.20 17.94Q147.33 18.04 147.33 18.18L147.33 18.18Q147.33 18.56 146.85 18.88Q146.36 19.20 145.78 19.35Q145.20 19.50 144.76 19.50L144.76 19.50Q143.21 19.50 142.27 18.57ZM146.22 15.13L146.22 15.13Q146.21 14.35 145.81 13.86Q145.41 13.36 144.65 13.36Q143.89 13.36 143.32 13.91Q142.75 14.46 142.71 15.16L142.71 15.16L144.31 15.16Q145.38 15.16 146.22 15.13ZM148.85 17.48L148.85 13.66L148.43 13.67Q148.18 13.67 148.06 13.62Q147.94 13.57 147.94 13.42Q147.94 13.26 148.08 13.14Q148.21 13.01 148.38 12.94L148.38 12.94Q148.85 12.75 148.94 12.62Q149.04 12.48 149.22 12.03L149.22 12.03Q149.68 10.90 149.99 10.90L149.99 10.90Q150.14 10.90 150.17 11.24Q150.19 11.58 150.20 11.76Q150.20 11.94 150.19 12.29Q150.19 12.64 150.19 12.78L150.19 12.78L151.81 12.78Q152.05 12.78 152.22 12.90Q152.38 13.02 152.38 13.22Q152.38 13.42 152.22 13.53Q152.06 13.64 151.82 13.64L151.82 13.64L150.19 13.64L150.18 17.13Q150.18 18.61 150.92 18.61L150.92 18.61Q151.13 18.61 151.53 18.49Q151.94 18.36 152.06 18.36L152.06 18.36Q152.34 18.36 152.34 18.68L152.34 18.68Q152.34 18.94 151.68 19.19Q151.02 19.44 150.33 19.44Q149.63 19.44 149.24 18.90Q148.85 18.36 148.85 17.48L148.85 17.48ZM154.58 14.98Q154.32 14.98 154.00 14.78Q153.69 14.58 153.69 14.26Q153.69 13.93 153.87 13.64Q154.05 13.36 154.35 13.18Q154.64 13.00 155.03 12.87L155.03 12.87Q155.74 12.65 156.56 12.65L156.56 12.65Q157.94 12.65 158.57 13.26Q159.20 13.87 159.20 15.28L159.20 15.28L159.19 17.29Q159.19 18.03 159.37 18.21L159.37 18.21Q159.42 18.26 159.67 18.33L159.67 18.33Q160.37 18.55 160.37 18.67L160.37 18.67Q160.37 19.39 158.90 19.39L158.90 19.39Q158.35 19.39 158.18 19.14Q158.01 18.89 158.00 18.25L158.00 18.25Q157.69 18.80 157.06 19.14Q156.43 19.48 155.72 19.48Q155.00 19.48 154.50 19.30Q154 19.11 153.69 18.70Q153.38 18.29 153.38 17.81Q153.38 17.33 153.49 17.04Q153.60 16.75 153.76 16.55Q153.92 16.35 154.21 16.19Q154.49 16.04 154.74 15.94Q154.98 15.85 155.37 15.78L155.37 15.78Q155.95 15.67 156.34 15.62Q156.73 15.58 156.74 15.57L156.74 15.57Q156.78 15.57 157.21 15.52Q157.64 15.48 157.88 15.34L157.88 15.34Q157.88 14.04 157.53 13.64L157.53 13.64Q157.23 13.30 156.52 13.30Q155.82 13.30 155.47 13.66Q155.11 14.02 155.11 14.80L155.11 14.80L155.12 14.95Q154.83 14.98 154.58 14.98ZM157.88 15.96L157.88 15.96Q157.42 16.13 156.83 16.19Q156.25 16.26 155.91 16.34Q155.58 16.43 155.35 16.56L155.35 16.56Q154.83 16.86 154.83 17.60L154.83 17.60Q154.83 18.77 156.20 18.77L156.20 18.77Q157.38 18.77 157.70 17.64L157.70 17.64Q157.88 17.00 157.88 15.96ZM161.92 10.74L161.92 10.74Q161.92 10.44 162.21 10.18Q162.50 9.91 162.85 9.91Q163.19 9.91 163.52 10.12Q163.84 10.34 163.84 10.68Q163.84 11.03 163.57 11.27Q163.30 11.50 162.90 11.50Q162.50 11.50 162.21 11.29Q161.92 11.07 161.92 10.74ZM163.35 19.32L163.35 19.32L162.76 19.33Q161.87 19.33 161.66 19.05L161.66 19.05Q161.56 18.93 161.56 18.75Q161.56 18.58 161.70 18.51Q161.83 18.44 162.00 18.44Q162.17 18.43 162.31 18.33Q162.44 18.23 162.44 18.01L162.44 18.01L162.44 14.33Q162.44 13.71 161.96 13.67L161.96 13.67Q161.91 13.66 161.83 13.65Q161.76 13.64 161.72 13.64Q161.69 13.64 161.64 13.63Q161.59 13.62 161.56 13.60Q161.54 13.59 161.51 13.57L161.51 13.57Q161.46 13.54 161.46 13.37Q161.46 13.21 161.67 13.04L161.67 13.04Q162.06 12.73 162.71 12.73L162.71 12.73Q163.31 12.73 163.42 12.78Q163.52 12.82 163.60 12.88L163.60 12.88Q163.74 12.97 163.74 13.24L163.74 13.24L163.74 18.01Q163.74 18.41 164.18 18.43Q164.62 18.46 164.62 18.79L164.62 18.79Q164.62 19.16 164.21 19.25L164.21 19.25Q163.90 19.32 163.35 19.32ZM167.63 19.32L167.63 19.32L167.04 19.33Q166.15 19.33 165.94 19.05L165.94 19.05Q165.84 18.93 165.84 18.75Q165.84 18.58 165.98 18.51Q166.11 18.44 166.28 18.44Q166.44 18.43 166.58 18.33Q166.71 18.23 166.71 18.01L166.71 18.01L166.71 10.79Q166.71 10.17 166.22 10.12L166.22 10.12Q166.17 10.12 166.10 10.11Q166.02 10.10 165.99 10.10Q165.96 10.10 165.90 10.09Q165.85 10.08 165.83 10.06Q165.81 10.05 165.79 10.03L165.79 10.03Q165.74 9.99 165.74 9.83Q165.74 9.67 165.95 9.50L165.95 9.50Q166.33 9.19 166.98 9.19L166.98 9.19Q167.67 9.19 167.79 9.27L167.79 9.27Q168.02 9.43 168.02 9.70L168.02 9.70L168.02 18.01Q168.02 18.41 168.46 18.43Q168.90 18.46 168.90 18.79L168.90 18.79Q168.90 19.16 168.49 19.25L168.49 19.25Q168.18 19.32 167.63 19.32Z"></path></g></svg>