<svg data-v-423bf9ae="" xmlns="http://www.w3.org/2000/svg" viewBox="0 0 425.761400685739 60" class="font"><!----><!----><!----><g data-v-423bf9ae="" id="9a00d101-c166-4f49-8f57-f25929918d22" fill="black" transform="matrix(5.819592391658763,0,0,5.819592391658763,-1.2221147120934575,-53.48205116050873)"><path d="M6.30 17.99L6.30 17.99Q6.61 17.99 6.61 18.27L6.61 18.27Q6.61 18.43 6.51 18.53L6.51 18.53Q5.61 19.50 3.90 19.50Q2.20 19.50 1.21 18.58Q0.21 17.66 0.21 16.14L0.21 16.14Q0.21 15.15 0.69 14.35Q1.18 13.54 2.01 13.09Q2.84 12.64 3.85 12.64L3.85 12.64Q5.26 12.64 6.03 13.37L6.03 13.37Q6.43 13.76 6.43 14.28L6.43 14.28Q6.43 14.59 6.18 14.80Q5.92 15.01 5.56 15.01Q5.21 15.01 5.05 14.95L5.05 14.95Q5.00 14.18 4.73 13.76Q4.46 13.35 3.83 13.35L3.83 13.35Q2.79 13.35 2.20 14.01Q1.61 14.68 1.61 15.80Q1.61 16.92 2.36 17.75Q3.12 18.57 4.27 18.57L4.27 18.57Q4.94 18.57 5.93 18.09L5.93 18.09Q6.14 17.99 6.30 17.99ZM9.31 13.59L9.31 16.36Q9.31 17.29 9.46 17.68Q9.61 18.07 9.80 18.23L9.80 18.23Q10.20 18.57 11.13 18.57Q12.05 18.57 12.48 18.10Q12.91 17.62 12.91 16.51L12.91 16.51L12.91 14.20Q12.91 13.69 12.41 13.66L12.41 13.66Q12.02 13.64 11.98 13.57Q11.94 13.51 11.94 13.43L11.94 13.43Q11.94 13.08 12.34 12.91Q12.74 12.73 13.29 12.73Q13.84 12.73 14.03 12.88Q14.23 13.03 14.23 13.59L14.23 13.59L14.23 17.96Q14.23 18.43 14.72 18.46L14.72 18.46Q15.07 18.48 15.15 18.54Q15.22 18.59 15.22 18.77Q15.22 18.96 15.00 19.12L15.00 19.12Q14.59 19.39 13.95 19.39Q13.30 19.39 13.15 19.20Q13.00 19.00 13.00 18.30L13.00 18.30Q12.17 19.50 10.47 19.50L10.47 19.50Q9.12 19.50 8.56 18.78Q7.99 18.05 7.99 16.54L7.99 16.54L7.99 14.20Q7.99 13.69 7.51 13.66L7.51 13.66Q7.10 13.64 7.06 13.57Q7.02 13.51 7.02 13.43L7.02 13.43Q7.02 13.08 7.42 12.91Q7.81 12.73 8.36 12.73Q8.91 12.73 9.11 12.88Q9.31 13.03 9.31 13.59L9.31 13.59ZM21.72 16.36L21.72 16.36Q21.72 15.66 21.46 15.02Q21.21 14.37 20.70 13.94Q20.20 13.51 19.58 13.51L19.58 13.51Q18.72 13.51 18.00 14.18L18.00 14.18L18.00 17.94Q18.81 18.59 19.75 18.59Q20.69 18.59 21.21 17.97Q21.72 17.36 21.72 16.36ZM16.97 19.37L16.97 19.37Q16.70 19.37 16.70 18.75L16.70 18.75L16.70 10.79Q16.70 10.17 16.21 10.12L16.21 10.12Q16.16 10.12 16.08 10.11Q16.01 10.10 15.98 10.10Q15.94 10.10 15.89 10.09Q15.84 10.08 15.81 10.06Q15.79 10.05 15.77 10.03L15.77 10.03Q15.72 9.99 15.72 9.83Q15.72 9.67 15.93 9.50L15.93 9.50Q16.32 9.19 16.97 9.19L16.97 9.19Q17.66 9.19 17.77 9.27L17.77 9.27Q18.01 9.43 18.01 9.70L18.01 9.70L18.01 13.48Q19.02 12.61 20.32 12.61Q21.62 12.61 22.41 13.52Q23.20 14.42 23.20 15.89L23.20 15.89Q23.20 16.80 22.80 17.62Q22.40 18.43 21.68 18.94Q20.96 19.44 20.10 19.44L20.10 19.44Q18.87 19.44 17.71 18.67L17.71 18.67Q17.70 18.68 17.53 18.92L17.53 18.92Q17.19 19.37 16.97 19.37ZM24.88 18.57Q23.93 17.64 23.93 16.11Q23.93 14.57 24.89 13.61Q25.84 12.65 27.32 12.65L27.32 12.65Q28.49 12.65 29.29 13.40Q30.09 14.16 30.09 15.30L30.09 15.30Q30.09 15.85 29.22 15.85L29.22 15.85L25.26 15.85Q25.27 16.96 25.98 17.72Q26.68 18.48 27.75 18.48L27.75 18.48Q28.46 18.48 29.13 18.06L29.13 18.06Q29.49 17.84 29.59 17.84Q29.69 17.84 29.81 17.94Q29.94 18.04 29.94 18.18L29.94 18.18Q29.94 18.56 29.46 18.88Q28.98 19.20 28.40 19.35Q27.82 19.50 27.38 19.50L27.38 19.50Q25.83 19.50 24.88 18.57ZM28.83 15.13L28.83 15.13Q28.82 14.35 28.42 13.86Q28.03 13.36 27.27 13.36Q26.50 13.36 25.93 13.91Q25.36 14.46 25.33 15.16L25.33 15.16L26.93 15.16Q27.99 15.16 28.83 15.13ZM33.97 18.70L33.97 18.70Q35.51 18.70 35.51 17.75L35.51 17.75Q35.51 17.04 34.13 16.64L34.13 16.64Q33.87 16.56 33.50 16.46L33.50 16.46Q32.81 16.28 32.57 16.18L32.57 16.18Q31.96 15.95 31.55 15.50Q31.13 15.06 31.13 14.45L31.13 14.45Q31.13 13.67 31.88 13.15Q32.63 12.63 33.69 12.63L33.69 12.63Q34.72 12.63 35.62 13.00L35.62 13.00Q36.07 13.19 36.34 13.51Q36.62 13.84 36.62 14.20Q36.62 14.55 36.34 14.77Q36.05 14.98 35.75 14.98Q35.44 14.98 35.35 14.92Q35.25 14.86 35.25 14.65L35.25 14.65Q35.25 13.33 33.84 13.33L33.84 13.33Q33.26 13.33 32.83 13.59Q32.40 13.84 32.40 14.25L32.40 14.25Q32.40 14.90 33.74 15.27L33.74 15.27Q33.95 15.33 34.25 15.40Q34.56 15.48 34.81 15.56Q35.06 15.64 35.34 15.75Q35.62 15.85 35.92 16.02Q36.23 16.19 36.42 16.39L36.42 16.39Q36.87 16.84 36.87 17.48Q36.87 18.12 36.44 18.59L36.44 18.59Q35.58 19.50 33.97 19.50L33.97 19.50Q32.93 19.50 32.05 19.15L32.05 19.15Q31.60 18.98 31.32 18.66Q31.05 18.35 31.05 17.99Q31.05 17.64 31.27 17.44Q31.50 17.25 31.79 17.25Q32.07 17.25 32.28 17.42Q32.48 17.60 32.48 17.87Q32.48 18.13 32.43 18.43L32.43 18.43Q33.15 18.70 33.97 18.70ZM44.78 19.32L44.78 19.32L44.19 19.33Q43.29 19.33 43.08 19.05L43.08 19.05Q42.98 18.93 42.98 18.75Q42.98 18.58 43.12 18.51Q43.26 18.44 43.43 18.44Q43.59 18.43 43.73 18.33Q43.87 18.23 43.87 18.01L43.87 18.01L43.87 16.02Q43.87 14.77 43.57 14.17L43.57 14.17Q43.24 13.50 42.21 13.50L42.21 13.50Q41.11 13.50 40.67 14.19L40.67 14.19Q40.28 14.83 40.28 16.06L40.28 16.06L40.28 18.01Q40.28 18.41 40.72 18.43Q41.16 18.46 41.16 18.79L41.16 18.79Q41.16 19.16 40.74 19.25L40.74 19.25Q40.44 19.32 39.89 19.32L39.89 19.32L39.30 19.33Q38.40 19.33 38.19 19.05L38.19 19.05Q38.10 18.93 38.10 18.75Q38.10 18.58 38.23 18.51Q38.37 18.44 38.54 18.44Q38.71 18.43 38.84 18.33Q38.98 18.23 38.98 18.01L38.98 18.01L38.98 10.57Q38.98 10.17 38.49 10.09L38.49 10.09Q38.14 10.04 38.07 9.97Q38.00 9.91 38.00 9.75Q38.00 9.60 38.14 9.48Q38.29 9.36 38.52 9.30L38.52 9.30Q38.93 9.19 39.44 9.19L39.44 9.19Q40.28 9.19 40.28 9.70L40.28 9.70L40.28 13.67Q41.21 12.62 42.64 12.62Q44.06 12.62 44.61 13.35Q45.17 14.08 45.17 15.55L45.17 15.55L45.17 18.01Q45.17 18.41 45.61 18.43Q46.05 18.46 46.05 18.79L46.05 18.79Q46.05 19.16 45.64 19.25L45.64 19.25Q45.32 19.32 44.78 19.32ZM48.03 14.98Q47.77 14.98 47.45 14.78Q47.13 14.58 47.13 14.26Q47.13 13.93 47.32 13.64Q47.50 13.36 47.80 13.18Q48.09 13.00 48.48 12.87L48.48 12.87Q49.19 12.65 50.01 12.65L50.01 12.65Q51.39 12.65 52.02 13.26Q52.64 13.87 52.64 15.28L52.64 15.28L52.64 17.29Q52.64 18.03 52.82 18.21L52.82 18.21Q52.87 18.26 53.12 18.33L53.12 18.33Q53.82 18.55 53.82 18.67L53.82 18.67Q53.82 19.39 52.35 19.39L52.35 19.39Q51.80 19.39 51.63 19.14Q51.46 18.89 51.45 18.25L51.45 18.25Q51.14 18.80 50.51 19.14Q49.88 19.48 49.16 19.48Q48.45 19.48 47.95 19.30Q47.45 19.11 47.14 18.70Q46.83 18.29 46.83 17.81Q46.83 17.33 46.94 17.04Q47.04 16.75 47.21 16.55Q47.37 16.35 47.66 16.19Q47.94 16.04 48.19 15.94Q48.43 15.85 48.82 15.78L48.82 15.78Q49.40 15.67 49.79 15.62Q50.18 15.58 50.19 15.57L50.19 15.57Q50.23 15.57 50.66 15.52Q51.08 15.48 51.33 15.34L51.33 15.34Q51.33 14.04 50.98 13.64L50.98 13.64Q50.67 13.30 49.97 13.30Q49.27 13.30 48.91 13.66Q48.56 14.02 48.56 14.80L48.56 14.80L48.57 14.95Q48.28 14.98 48.03 14.98ZM51.33 15.96L51.33 15.96Q50.87 16.13 50.28 16.19Q49.70 16.26 49.36 16.34Q49.03 16.43 48.80 16.56L48.80 16.56Q48.28 16.86 48.28 17.60L48.28 17.60Q48.28 18.77 49.65 18.77L49.65 18.77Q50.83 18.77 51.15 17.64L51.15 17.64Q51.33 17.00 51.33 15.96ZM56.51 19.32L56.51 19.32L55.92 19.33Q55.03 19.33 54.82 19.05L54.82 19.05Q54.72 18.93 54.72 18.75Q54.72 18.58 54.86 18.51Q55.00 18.44 55.16 18.44Q55.33 18.43 55.47 18.33Q55.60 18.23 55.60 18.01L55.60 18.01L55.60 14.64Q55.60 14.03 55.46 13.88Q55.31 13.74 55.21 13.70Q55.11 13.66 54.90 13.60Q54.69 13.54 54.55 13.47Q54.42 13.41 54.42 13.29L54.42 13.29Q54.42 12.74 55.89 12.74L55.89 12.74Q56.51 12.74 56.68 12.96Q56.85 13.17 56.85 13.95L56.85 13.95Q57.08 13.36 57.62 13.03Q58.15 12.69 58.72 12.69Q59.28 12.69 59.65 12.94Q60.01 13.18 60.01 13.55Q60.01 13.92 59.77 14.15Q59.53 14.37 59.19 14.37Q58.84 14.37 58.59 14.18Q58.34 14 58.26 13.71L58.26 13.71Q58.08 13.68 57.97 13.68L57.97 13.68Q56.90 13.68 56.90 16.13L56.90 16.13L56.90 18.01Q56.90 18.41 57.34 18.43Q57.78 18.46 57.78 18.79L57.78 18.79Q57.78 19.16 57.37 19.25L57.37 19.25Q57.06 19.32 56.51 19.32ZM61.38 18.57Q60.44 17.64 60.44 16.11Q60.44 14.57 61.39 13.61Q62.34 12.65 63.82 12.65L63.82 12.65Q64.99 12.65 65.79 13.40Q66.60 14.16 66.60 15.30L66.60 15.30Q66.60 15.85 65.72 15.85L65.72 15.85L61.76 15.85Q61.78 16.96 62.48 17.72Q63.18 18.48 64.26 18.48L64.26 18.48Q64.97 18.48 65.64 18.06L65.64 18.06Q65.99 17.84 66.09 17.84Q66.19 17.84 66.32 17.94Q66.45 18.04 66.45 18.18L66.45 18.18Q66.45 18.56 65.96 18.88Q65.48 19.20 64.90 19.35Q64.32 19.50 63.88 19.50L63.88 19.50Q62.33 19.50 61.38 18.57ZM65.34 15.13L65.34 15.13Q65.32 14.35 64.93 13.86Q64.53 13.36 63.77 13.36Q63.01 13.36 62.44 13.91Q61.87 14.46 61.83 15.16L61.83 15.16L63.43 15.16Q64.50 15.16 65.34 15.13ZM70.48 18.70L70.48 18.70Q72.02 18.70 72.02 17.75L72.02 17.75Q72.02 17.04 70.63 16.64L70.63 16.64Q70.37 16.56 70 16.46L70 16.46Q69.31 16.28 69.07 16.18L69.07 16.18Q68.47 15.95 68.05 15.50Q67.63 15.06 67.63 14.45L67.63 14.45Q67.63 13.67 68.38 13.15Q69.13 12.63 70.19 12.63L70.19 12.63Q71.22 12.63 72.13 13.00L72.13 13.00Q72.57 13.19 72.85 13.51Q73.12 13.84 73.12 14.20Q73.12 14.55 72.84 14.77Q72.56 14.98 72.25 14.98Q71.95 14.98 71.85 14.92Q71.75 14.86 71.75 14.65L71.75 14.65Q71.75 13.33 70.35 13.33L70.35 13.33Q69.77 13.33 69.34 13.59Q68.91 13.84 68.91 14.25L68.91 14.25Q68.91 14.90 70.25 15.27L70.25 15.27Q70.46 15.33 70.76 15.40Q71.06 15.48 71.31 15.56Q71.57 15.64 71.84 15.75Q72.12 15.85 72.43 16.02Q72.73 16.19 72.93 16.39L72.93 16.39Q73.37 16.84 73.37 17.48Q73.37 18.12 72.94 18.59L72.94 18.59Q72.08 19.50 70.48 19.50L70.48 19.50Q69.43 19.50 68.55 19.15L68.55 19.15Q68.10 18.98 67.83 18.66Q67.55 18.35 67.55 17.99Q67.55 17.64 67.78 17.44Q68.00 17.25 68.29 17.25Q68.58 17.25 68.78 17.42Q68.98 17.60 68.98 17.87Q68.98 18.13 68.93 18.43L68.93 18.43Q69.66 18.70 70.48 18.70Z"></path></g><!----><!----></svg>