<svg width="173" height="25" viewBox="0 0 173 25" fill="none" xmlns="http://www.w3.org/2000/svg">
<g clip-path="url(#clip0_1_40)">
<path d="M14.4009 21.3385C14.8896 21.3385 15.134 21.5648 15.134 22.0175C15.134 22.2761 15.0551 22.4863 14.8975 22.6479C13.4787 24.216 11.4214 25 8.72567 25C6.0457 25 3.92537 24.2564 2.36468 22.7692C0.788227 21.2819 0 19.3097 0 16.8526C0 15.2522 0.378349 13.8054 1.13505 12.5121C1.90751 11.2027 2.94797 10.1843 4.25642 9.45684C5.56488 8.72939 7.01522 8.36567 8.60744 8.36567C10.8302 8.36567 12.5486 8.95571 13.7624 10.1358C14.393 10.7662 14.7083 11.5018 14.7083 12.3424C14.7083 12.8435 14.5113 13.2638 14.1171 13.6033C13.7073 13.9428 13.2186 14.1125 12.651 14.1125C12.0993 14.1125 11.6973 14.064 11.4451 13.967C11.3662 12.7223 11.114 11.7604 10.6884 11.0815C10.2627 10.4187 9.55331 10.0873 8.56014 10.0873C6.92063 10.0873 5.63582 10.6208 4.70571 11.6877C3.77561 12.7708 3.31055 14.2176 3.31055 16.0281C3.31055 17.8387 3.90172 19.4148 5.08406 20.7565C6.28217 22.0821 7.78768 22.7449 9.6006 22.7449C10.6568 22.7449 11.9653 22.3569 13.526 21.581C13.857 21.4193 14.1487 21.3385 14.4009 21.3385ZM21.5186 10.6693V17.386C21.5186 18.8894 21.6368 19.9564 21.8733 20.5868C22.1098 21.2173 22.3778 21.6618 22.6773 21.9205C23.3079 22.4701 24.3562 22.7449 25.8223 22.7449C27.2726 22.7449 28.3367 22.365 29.0146 21.6052C29.6925 20.8293 30.0314 19.5441 30.0314 17.7498V12.1484C30.0314 11.324 29.6373 10.8875 28.8491 10.839C28.2343 10.8067 27.8953 10.7339 27.8323 10.6208C27.7692 10.5238 27.7377 10.4106 27.7377 10.2813C27.7377 9.71549 28.053 9.29518 28.6836 9.02037C29.3141 8.72939 30.063 8.5839 30.93 8.5839C31.7971 8.5839 32.3804 8.70514 32.6799 8.94763C32.9952 9.19011 33.1528 9.76398 33.1528 10.6693V21.2658C33.1528 22.0255 33.539 22.4297 34.3115 22.4782C34.8633 22.5105 35.2022 22.5752 35.3283 22.6722C35.4387 22.753 35.4938 22.9389 35.4938 23.2299C35.4938 23.537 35.3204 23.8199 34.9736 24.0786C34.3273 24.515 33.4996 24.7333 32.4907 24.7333C31.466 24.7333 30.8354 24.5797 30.599 24.2726C30.3625 23.9492 30.2443 23.2218 30.2443 22.0902C28.9358 24.0301 26.9416 25 24.2616 25C22.1334 25 20.6279 24.418 19.7451 23.2541C18.8465 22.074 18.3972 20.2635 18.3972 17.8225V12.1484C18.3972 11.324 18.0189 10.8875 17.2622 10.839C16.6158 10.8067 16.2611 10.7339 16.1981 10.6208C16.135 10.5238 16.1035 10.4106 16.1035 10.2813C16.1035 9.71549 16.4188 9.29518 17.0493 9.02037C17.6642 8.72939 18.4051 8.5839 19.2721 8.5839C20.1392 8.5839 20.7304 8.70514 21.0457 8.94763C21.3609 9.19011 21.5186 9.76398 21.5186 10.6693ZM50.8643 17.386C50.8643 16.2544 50.6593 15.1714 50.2495 14.1368C49.8553 13.086 49.2563 12.2131 48.4523 11.5179C47.6641 10.8228 46.7813 10.4753 45.8039 10.4753C44.4481 10.4753 43.2027 11.0168 42.0677 12.0999V21.2173C43.3446 22.268 44.724 22.7934 46.2058 22.7934C47.6877 22.7934 48.8385 22.2923 49.6583 21.29C50.4623 20.3039 50.8643 19.0026 50.8643 17.386ZM39.632 24.6848C39.2064 24.6848 38.9936 24.1836 38.9936 23.1814V3.87973C38.9936 2.87747 38.6073 2.33592 37.8349 2.25509C37.7561 2.25509 37.6536 2.24701 37.5275 2.23084C37.4171 2.21468 37.3383 2.2066 37.291 2.2066C37.2279 2.2066 37.157 2.19851 37.0782 2.18235C36.9994 2.16618 36.9363 2.14194 36.889 2.1096C36.8575 2.09344 36.826 2.06919 36.7944 2.03686C36.7156 1.9722 36.6762 1.81054 36.6762 1.55189C36.6762 1.29324 36.8417 1.02651 37.1728 0.751698C37.7876 0.250567 38.6073 0 39.632 0C40.7198 0 41.3504 0.0646643 41.5238 0.193989C41.9021 0.452637 42.0913 0.800195 42.0913 1.23666V10.4025C43.6835 8.99612 45.5043 8.29292 47.5537 8.29292C49.6031 8.29292 51.2505 9.02845 52.4959 10.4995C53.7413 11.9544 54.364 13.87 54.364 16.2464C54.364 17.7174 54.0487 19.1157 53.4181 20.4413C52.7875 21.7507 51.9047 22.8177 50.7697 23.6421C49.6346 24.4504 48.3892 24.8545 47.0335 24.8545C45.0945 24.8545 43.2106 24.2321 41.3819 22.9874C41.3661 23.0036 41.2243 23.2056 40.9563 23.5936C40.4203 24.321 39.9789 24.6848 39.632 24.6848ZM58.3367 22.7449C56.839 21.2415 56.0902 19.2532 56.0902 16.7798C56.0902 14.2903 56.8469 12.2696 58.3603 10.7177C59.8579 9.16586 61.7733 8.38991 64.1065 8.38991C65.9509 8.38991 67.5037 8.99612 68.7649 10.2085C70.0261 11.4371 70.6566 12.9728 70.6566 14.8157C70.6566 15.7048 69.9709 16.1494 68.5994 16.1494H59.2352C59.251 17.9437 59.8185 19.4552 60.9378 20.6838C62.0413 21.9124 63.4365 22.5267 65.1233 22.5267C66.2426 22.5267 67.3303 22.1872 68.3866 21.5082C68.9541 21.1526 69.3167 20.9748 69.4743 20.9748C69.632 20.9748 69.8054 21.0556 69.9945 21.2173C70.1995 21.3789 70.3019 21.5729 70.3019 21.7992C70.3019 22.4135 69.9236 22.9793 69.1669 23.4966C68.4102 24.0139 67.5747 24.3938 66.6603 24.6363C65.746 24.8788 64.942 25 64.2484 25C61.8049 25 59.8343 24.2483 58.3367 22.7449ZM67.6771 14.4035C67.6614 13.1426 67.3382 12.1161 66.7076 11.324C66.0928 10.5157 65.1863 10.1115 63.9882 10.1115C62.7744 10.1115 61.7182 10.5561 60.8196 11.4452C59.921 12.3343 59.4481 13.3446 59.4008 14.4762H63.1843C64.8553 14.4762 66.3529 14.452 67.6771 14.4035ZM79.8316 23.0601C82.2593 23.0601 83.4732 22.2923 83.4732 20.7565C83.4732 19.6088 82.3855 18.7116 80.21 18.065C79.8001 17.9357 79.3035 17.7902 78.7202 17.6285C77.6324 17.3375 76.8994 17.1112 76.521 16.9496C75.5594 16.5778 74.7554 16.0281 74.1091 15.3007C73.447 14.5894 73.1159 13.7407 73.1159 12.7546C73.1159 11.4937 73.7071 10.4429 74.8894 9.60233C76.0718 8.76172 77.4984 8.34142 79.1695 8.34142C80.7932 8.34142 82.3145 8.64048 83.7333 9.2386C84.4427 9.54575 85.0103 9.95797 85.4359 10.4753C85.8773 11.0087 86.098 11.5664 86.098 12.1484C86.098 12.7142 85.8773 13.1749 85.4359 13.5306C84.9787 13.87 84.5137 14.0398 84.0407 14.0398C83.552 14.0398 83.2367 13.9913 83.0949 13.8943C82.9372 13.7973 82.8584 13.579 82.8584 13.2396C82.8584 11.1057 81.747 10.0388 79.5242 10.0388C78.6098 10.0388 77.8137 10.249 77.1359 10.6693C76.458 11.0734 76.1191 11.6069 76.1191 12.2696C76.1191 13.3204 77.1753 14.1448 79.2877 14.743C79.6188 14.84 80.0208 14.945 80.4937 15.0582C80.9824 15.1875 81.4238 15.3168 81.8179 15.4462C82.2121 15.5755 82.6298 15.7291 83.0712 15.9069C83.5126 16.0685 83.9698 16.2868 84.4427 16.5616C84.9314 16.8364 85.3255 17.1355 85.6251 17.4588C86.3345 18.1862 86.6892 19.0672 86.6892 20.1018C86.6892 21.1364 86.3502 22.0336 85.6724 22.7934C84.3166 24.2645 82.3697 25 79.8316 25C78.1921 25 76.6787 24.7171 75.2914 24.1513C74.582 23.8765 74.0066 23.4804 73.5652 22.9631C73.1396 22.462 72.9267 21.9205 72.9267 21.3385C72.9267 20.7727 73.1001 20.3282 73.447 20.0049C73.8095 19.6977 74.2194 19.5441 74.6766 19.5441C75.118 19.5441 75.5042 19.6815 75.8353 19.9564C76.1506 20.2473 76.3082 20.6111 76.3082 21.0475C76.3082 21.4678 76.2688 21.9205 76.19 22.4054C77.325 22.8419 78.5389 23.0601 79.8316 23.0601ZM105.394 24.5635L103.999 24.5878C102.58 24.5878 101.705 24.3615 101.374 23.9088C101.216 23.7148 101.137 23.4724 101.137 23.1814C101.137 22.9066 101.248 22.7126 101.468 22.5994C101.689 22.4863 101.933 22.4297 102.201 22.4297C102.454 22.4135 102.69 22.3246 102.911 22.1629C103.132 22.0013 103.242 21.7426 103.242 21.387V16.5616C103.242 14.5409 103.005 13.0456 102.533 12.0757C102.012 10.9926 100.94 10.451 99.3166 10.451C97.5825 10.451 96.3686 11.0087 95.6749 12.1242C95.0601 13.1587 94.7527 14.6702 94.7527 16.6586V21.387C94.7527 22.0336 95.0996 22.3731 95.7932 22.4054C96.4868 22.4539 96.8336 22.7449 96.8336 23.2784C96.8336 23.8765 96.5026 24.2483 95.8405 24.3938C95.3676 24.507 94.6976 24.5635 93.8305 24.5635L92.4353 24.5878C91.0165 24.5878 90.1416 24.3615 89.8105 23.9088C89.6687 23.7148 89.5977 23.4724 89.5977 23.1814C89.5977 22.9066 89.7002 22.7126 89.9051 22.5994C90.1258 22.4863 90.3702 22.4297 90.6382 22.4297C90.9062 22.4135 91.1427 22.3246 91.3476 22.1629C91.5683 22.0013 91.6786 21.7426 91.6786 21.387V3.34627C91.6786 2.69964 91.2924 2.31167 90.52 2.18235C89.9682 2.10152 89.6371 2.00453 89.5268 1.89137C89.4164 1.79438 89.3613 1.61655 89.3613 1.35791C89.3613 1.11542 89.4716 0.897187 89.6923 0.703201C89.9288 0.509214 90.2283 0.363726 90.5909 0.266733C91.2372 0.0889119 91.9624 0 92.7664 0C94.0906 0 94.7527 0.412222 94.7527 1.23666V10.8632C96.2188 9.16586 98.079 8.31717 100.333 8.31717C102.572 8.31717 104.125 8.90721 104.992 10.0873C105.875 11.2674 106.316 13.0456 106.316 15.4219V21.387C106.316 22.0336 106.663 22.3731 107.356 22.4054C108.05 22.4539 108.397 22.7449 108.397 23.2784C108.397 23.8765 108.074 24.2483 107.427 24.3938C106.923 24.507 106.245 24.5635 105.394 24.5635ZM113.079 14.0398C112.669 14.0398 112.212 13.8781 111.707 13.5548C111.203 13.2315 110.951 12.8112 110.951 12.2939C110.951 11.7604 111.101 11.2593 111.4 10.7905C111.684 10.3379 112.062 9.96605 112.535 9.67507C112.992 9.38409 113.528 9.13353 114.143 8.92338C115.262 8.56773 116.468 8.38991 117.761 8.38991C119.937 8.38991 121.521 8.88296 122.514 9.86906C123.491 10.8552 123.98 12.4879 123.98 14.7672V19.6411C123.98 20.8374 124.122 21.581 124.406 21.872C124.485 21.9528 124.721 22.0498 125.115 22.1629C126.219 22.5186 126.771 22.7934 126.771 22.9874C126.771 24.1513 125.612 24.7333 123.294 24.7333C122.427 24.7333 121.86 24.5312 121.592 24.1271C121.324 23.7229 121.182 23.0036 121.166 21.969C120.678 22.8581 119.937 23.5774 118.943 24.1271C117.95 24.6767 116.886 24.9515 115.751 24.9515C114.632 24.9515 113.678 24.806 112.89 24.515C112.102 24.2079 111.463 23.7229 110.974 23.0601C110.486 22.3974 110.241 21.678 110.241 20.902C110.241 20.1261 110.328 19.5037 110.501 19.0349C110.659 18.5661 110.872 18.1701 111.14 17.8468C111.392 17.5234 111.747 17.2325 112.204 16.9738C112.645 16.7313 113.063 16.5293 113.457 16.3676C113.836 16.2221 114.332 16.0928 114.947 15.9796C115.861 15.8018 116.626 15.6725 117.241 15.5917C117.856 15.527 118.171 15.4866 118.187 15.4704C118.25 15.4704 118.62 15.43 119.298 15.3492C119.96 15.2845 120.488 15.139 120.882 14.9127C120.882 12.8112 120.607 11.4371 120.055 10.7905C119.566 10.2409 118.77 9.96605 117.666 9.96605C116.563 9.96605 115.727 10.257 115.16 10.839C114.608 11.421 114.332 12.3424 114.332 13.6033L114.356 13.967C113.899 14.0155 113.473 14.0398 113.079 14.0398ZM120.882 16.4161C120.157 16.6909 119.33 16.8768 118.4 16.9738C117.485 17.087 116.76 17.2082 116.224 17.3375C115.704 17.483 115.262 17.6608 114.9 17.871C114.08 18.356 113.67 19.1966 113.67 20.3928C113.67 22.2842 114.75 23.2299 116.91 23.2299C118.77 23.2299 119.952 22.3165 120.457 20.4898C120.741 19.4552 120.882 18.0973 120.882 16.4161ZM133.131 24.5635L131.736 24.5878C130.333 24.5878 129.466 24.3615 129.135 23.9088C128.978 23.7148 128.899 23.4724 128.899 23.1814C128.899 22.9066 129.009 22.7126 129.23 22.5994C129.45 22.4863 129.687 22.4297 129.939 22.4297C130.207 22.4135 130.452 22.3246 130.672 22.1629C130.877 22.0013 130.98 21.7426 130.98 21.387V13.2153C130.98 12.2292 130.869 11.6149 130.649 11.3725C130.412 11.1461 130.215 11.0006 130.057 10.936C129.9 10.8713 129.655 10.7905 129.324 10.6935C128.993 10.5965 128.717 10.4914 128.497 10.3783C128.292 10.2813 128.189 10.1358 128.189 9.9418C128.189 9.0527 129.348 8.60815 131.665 8.60815C132.643 8.60815 133.265 8.78597 133.533 9.14161C133.801 9.48109 133.935 10.2813 133.935 11.5422C134.298 10.5884 134.905 9.84481 135.756 9.31135C136.592 8.76172 137.459 8.48691 138.357 8.48691C139.24 8.48691 139.973 8.68898 140.557 9.09311C141.124 9.48109 141.408 9.97414 141.408 10.5723C141.408 11.1704 141.219 11.6554 140.84 12.0272C140.462 12.3828 140.005 12.5606 139.469 12.5606C138.917 12.5606 138.444 12.407 138.05 12.0999C137.656 11.8089 137.396 11.429 137.27 10.9602C136.986 10.9117 136.757 10.8875 136.584 10.8875C134.897 10.8875 134.054 12.8678 134.054 16.8283V21.387C134.054 22.0336 134.401 22.3731 135.094 22.4054C135.788 22.4539 136.135 22.7449 136.135 23.2784C136.135 23.8765 135.811 24.2483 135.165 24.3938C134.676 24.507 133.999 24.5635 133.131 24.5635ZM144.647 22.7449C143.166 21.2415 142.425 19.2532 142.425 16.7798C142.425 14.2903 143.173 12.2696 144.671 10.7177C146.169 9.16586 148.084 8.38991 150.417 8.38991C152.262 8.38991 153.815 8.99612 155.076 10.2085C156.353 11.4371 156.991 12.9728 156.991 14.8157C156.991 15.7048 156.297 16.1494 154.91 16.1494H145.546C145.578 17.9437 146.145 19.4552 147.249 20.6838C148.352 21.9124 149.755 22.5267 151.458 22.5267C152.577 22.5267 153.665 22.1872 154.721 21.5082C155.273 21.1526 155.627 20.9748 155.785 20.9748C155.943 20.9748 156.124 21.0556 156.329 21.2173C156.534 21.3789 156.636 21.5729 156.636 21.7992C156.636 22.4135 156.25 22.9793 155.478 23.4966C154.721 24.0139 153.885 24.3938 152.971 24.6363C152.057 24.8788 151.253 25 150.559 25C148.116 25 146.145 24.2483 144.647 22.7449ZM154.012 14.4035C153.98 13.1426 153.657 12.1161 153.042 11.324C152.412 10.5157 151.497 10.1115 150.299 10.1115C149.101 10.1115 148.053 10.5561 147.154 11.4452C146.255 12.3343 145.775 13.3446 145.712 14.4762H149.495C151.182 14.4762 152.687 14.452 154.012 14.4035ZM166.166 23.0601C168.594 23.0601 169.808 22.2923 169.808 20.7565C169.808 19.6088 168.712 18.7116 166.521 18.065C166.111 17.9357 165.614 17.7902 165.031 17.6285C163.943 17.3375 163.21 17.1112 162.832 16.9496C161.886 16.5778 161.082 16.0281 160.42 15.3007C159.758 14.5894 159.427 13.7407 159.427 12.7546C159.427 11.4937 160.018 10.4429 161.2 9.60233C162.383 8.76172 163.809 8.34142 165.48 8.34142C167.104 8.34142 168.633 8.64048 170.068 9.2386C170.761 9.54575 171.329 9.95797 171.77 10.4753C172.196 11.0087 172.409 11.5664 172.409 12.1484C172.409 12.7142 172.188 13.1749 171.747 13.5306C171.305 13.87 170.84 14.0398 170.352 14.0398C169.879 14.0398 169.563 13.9913 169.406 13.8943C169.248 13.7973 169.169 13.579 169.169 13.2396C169.169 11.1057 168.066 10.0388 165.859 10.0388C164.944 10.0388 164.148 10.249 163.47 10.6693C162.792 11.0734 162.454 11.6069 162.454 12.2696C162.454 13.3204 163.51 14.1448 165.622 14.743C165.953 14.84 166.355 14.945 166.828 15.0582C167.301 15.1875 167.735 15.3168 168.129 15.4462C168.539 15.5755 168.956 15.7291 169.382 15.9069C169.823 16.0685 170.288 16.2868 170.777 16.5616C171.25 16.8364 171.644 17.1355 171.96 17.4588C172.653 18.1862 173 19.0672 173 20.1018C173 21.1364 172.661 22.0336 171.983 22.7934C170.627 24.2645 168.688 25 166.166 25C164.511 25 162.99 24.7171 161.602 24.1513C160.893 23.8765 160.325 23.4804 159.9 22.9631C159.458 22.462 159.238 21.9205 159.238 21.3385C159.238 20.7727 159.419 20.3282 159.781 20.0049C160.128 19.6977 160.53 19.5441 160.987 19.5441C161.445 19.5441 161.831 19.6815 162.146 19.9564C162.461 20.2473 162.619 20.6111 162.619 21.0475C162.619 21.4678 162.58 21.9205 162.501 22.4054C163.652 22.8419 164.873 23.0601 166.166 23.0601Z" fill="white"/>
</g>
<defs>
<clipPath id="clip0_1_40">
<rect width="173" height="25" fill="white"/>
</clipPath>
</defs>
</svg>
