<svg width="221" height="41" viewBox="0 0 221 41" fill="none" xmlns="http://www.w3.org/2000/svg">
<g clip-path="url(#clip0_1_18)">
<path d="M61.6394 29.1035C62.1298 29.1035 62.375 29.324 62.375 29.7649C62.375 30.0169 62.2959 30.2217 62.1377 30.3792C60.714 31.9069 58.6495 32.6707 55.9444 32.6707C53.255 32.6707 51.1273 31.9462 49.5612 30.4973C47.9792 29.0483 47.1882 27.1269 47.1882 24.733C47.1882 23.1738 47.5679 21.7643 48.3272 20.5043C49.1024 19.2286 50.1465 18.2364 51.4595 17.5277C52.7725 16.8189 54.2279 16.4646 55.8257 16.4646C58.0563 16.4646 59.7806 17.0394 60.9987 18.1891C61.6315 18.8034 61.9479 19.52 61.9479 20.3389C61.9479 20.8272 61.7501 21.2366 61.3546 21.5674C60.9433 21.8981 60.4529 22.0635 59.8834 22.0635C59.3297 22.0635 58.9263 22.0162 58.6732 21.9217C58.5941 20.709 58.341 19.772 57.9139 19.1105C57.4868 18.4648 56.7749 18.1419 55.7782 18.1419C54.133 18.1419 52.8437 18.6616 51.9104 19.7011C50.977 20.7563 50.5103 22.1659 50.5103 23.9298C50.5103 25.6937 51.1036 27.2293 52.29 28.5365C53.4923 29.8279 55.0031 30.4737 56.8223 30.4737C57.8822 30.4737 59.1953 30.0957 60.7614 29.3397C61.0936 29.1822 61.3863 29.1035 61.6394 29.1035ZM68.7819 18.7089V25.2527C68.7819 26.7174 68.9006 27.7569 69.1379 28.3711C69.3752 28.9853 69.6441 29.4185 69.9447 29.6704C70.5774 30.2059 71.6294 30.4737 73.1007 30.4737C74.5561 30.4737 75.6239 30.1036 76.3041 29.3633C76.9844 28.6074 77.3245 27.3553 77.3245 25.6071V20.1499C77.3245 19.3467 76.929 18.9215 76.138 18.8742C75.5211 18.8427 75.1809 18.7719 75.1177 18.6616C75.0544 18.5671 75.0227 18.4569 75.0227 18.3309C75.0227 17.7797 75.3391 17.3702 75.9719 17.1024C76.6047 16.8189 77.3561 16.6772 78.2262 16.6772C79.0963 16.6772 79.6816 16.7953 79.9822 17.0316C80.2986 17.2678 80.4568 17.8269 80.4568 18.7089V29.0326C80.4568 29.7728 80.8443 30.1666 81.6195 30.2138C82.1732 30.2453 82.5133 30.3083 82.6399 30.4028C82.7506 30.4815 82.806 30.6627 82.806 30.9461C82.806 31.2454 82.6319 31.521 82.2839 31.773C81.6353 32.1982 80.8048 32.4108 79.7923 32.4108C78.7641 32.4108 78.1313 32.2612 77.894 31.962C77.6567 31.647 77.538 30.9383 77.538 29.8358C76.225 31.7257 74.2239 32.6707 71.5345 32.6707C69.3989 32.6707 67.8881 32.1037 67.0022 30.9698C66.1005 29.8201 65.6497 28.0561 65.6497 25.678V20.1499C65.6497 19.3467 65.27 18.9215 64.5106 18.8742C63.862 18.8427 63.5061 18.7719 63.4428 18.6616C63.3795 18.5671 63.3479 18.4569 63.3479 18.3309C63.3479 17.7797 63.6643 17.3702 64.2971 17.1024C64.914 16.8189 65.6576 16.6772 66.5276 16.6772C67.3977 16.6772 67.9909 16.7953 68.3073 17.0316C68.6237 17.2678 68.7819 17.8269 68.7819 18.7089ZM98.23 25.2527C98.23 24.1503 98.0244 23.0951 97.6131 22.0871C97.2176 21.0634 96.6164 20.2129 95.8096 19.5357C95.0187 18.8585 94.1328 18.5199 93.152 18.5199C91.7915 18.5199 90.5417 19.0475 89.4027 20.1027V28.9853C90.6841 30.0091 92.0683 30.5209 93.5553 30.5209C95.0424 30.5209 96.1972 30.0327 97.0198 29.0562C97.8266 28.0955 98.23 26.8277 98.23 25.2527ZM86.9586 32.3636C86.5315 32.3636 86.3179 31.8754 86.3179 30.8989V12.0941C86.3179 11.1177 85.9303 10.5901 85.1552 10.5113C85.0761 10.5113 84.9732 10.5034 84.8467 10.4877C84.7359 10.4719 84.6568 10.4641 84.6094 10.4641C84.5461 10.4641 84.4749 10.4562 84.3958 10.4404C84.3167 10.4247 84.2535 10.4011 84.206 10.3696C84.1744 10.3538 84.1427 10.3302 84.1111 10.2987C84.032 10.2357 83.9924 10.0782 83.9924 9.82621C83.9924 9.57422 84.1585 9.31436 84.4907 9.04662C85.1077 8.55839 85.9303 8.31427 86.9586 8.31427C88.0501 8.31427 88.6829 8.37727 88.8569 8.50326C89.2366 8.75526 89.4264 9.09387 89.4264 9.5191V18.449C91.0242 17.0788 92.8514 16.3937 94.9079 16.3937C96.9645 16.3937 98.6176 17.1103 99.8674 18.5435C101.117 19.9609 101.742 21.8273 101.742 24.1424C101.742 25.5756 101.426 26.9379 100.793 28.2294C100.16 29.5051 99.2741 30.5445 98.1351 31.3478C96.9961 32.1352 95.7464 32.529 94.3859 32.529C92.4401 32.529 90.5496 31.9226 88.7146 30.7099C88.6987 30.7257 88.5564 30.9225 88.2874 31.3005C87.7496 32.0092 87.3066 32.3636 86.9586 32.3636ZM105.728 30.4737C104.226 29.009 103.474 27.0718 103.474 24.6621C103.474 22.2367 104.234 20.2681 105.752 18.7561C107.255 17.2442 109.177 16.4882 111.518 16.4882C113.369 16.4882 114.928 17.0788 116.193 18.26C117.459 19.457 118.091 20.9532 118.091 22.7486C118.091 23.6148 117.403 24.0479 116.027 24.0479H106.63C106.646 25.7961 107.216 27.2687 108.339 28.4656C109.446 29.6626 110.846 30.261 112.539 30.261C113.662 30.261 114.754 29.9303 115.813 29.2688C116.383 28.9223 116.747 28.7491 116.905 28.7491C117.063 28.7491 117.237 28.8279 117.427 28.9853C117.633 29.1428 117.736 29.3318 117.736 29.5523C117.736 30.1508 117.356 30.702 116.597 31.206C115.837 31.71 114.999 32.0801 114.081 32.3163C113.164 32.5526 112.357 32.6707 111.661 32.6707C109.209 32.6707 107.231 31.9384 105.728 30.4737ZM115.102 22.347C115.086 21.1185 114.761 20.1184 114.129 19.3467C113.512 18.5592 112.602 18.1655 111.4 18.1655C110.182 18.1655 109.122 18.5986 108.22 19.4648C107.318 20.3311 106.844 21.3154 106.796 22.4179H110.593C112.27 22.4179 113.773 22.3942 115.102 22.347ZM127.298 30.7808C129.735 30.7808 130.953 30.0327 130.953 28.5365C130.953 27.4183 129.861 26.5442 127.678 25.9142C127.267 25.7882 126.769 25.6465 126.183 25.489C125.092 25.2055 124.356 24.985 123.976 24.8275C123.011 24.4653 122.205 23.9298 121.556 23.2211C120.892 22.5281 120.559 21.7013 120.559 20.7405C120.559 19.5121 121.153 18.4884 122.339 17.6694C123.525 16.8504 124.957 16.441 126.634 16.441C128.263 16.441 129.79 16.7323 131.214 17.315C131.926 17.6143 132.495 18.0159 132.922 18.5199C133.365 19.0396 133.587 19.583 133.587 20.1499C133.587 20.7012 133.365 21.15 132.922 21.4965C132.464 21.8273 131.997 21.9926 131.522 21.9926C131.032 21.9926 130.715 21.9454 130.573 21.8509C130.415 21.7564 130.336 21.5438 130.336 21.213C130.336 19.1341 129.221 18.0946 126.99 18.0946C126.072 18.0946 125.274 18.2994 124.593 18.7089C123.913 19.1026 123.573 19.6223 123.573 20.2681C123.573 21.2918 124.633 22.095 126.753 22.6777C127.085 22.7722 127.488 22.8746 127.963 22.9848C128.453 23.1108 128.896 23.2368 129.292 23.3628C129.687 23.4888 130.106 23.6384 130.549 23.8117C130.992 23.9692 131.451 24.1818 131.926 24.4495C132.416 24.7173 132.812 25.0086 133.112 25.3236C133.824 26.0323 134.18 26.8907 134.18 27.8986C134.18 28.9066 133.84 29.7807 133.16 30.5209C131.799 31.9541 129.845 32.6707 127.298 32.6707C125.653 32.6707 124.135 32.3951 122.742 31.8439C122.031 31.5761 121.453 31.1903 121.01 30.6863C120.583 30.1981 120.369 29.6704 120.369 29.1035C120.369 28.5522 120.544 28.1191 120.892 27.8041C121.255 27.5049 121.667 27.3553 122.125 27.3553C122.568 27.3553 122.956 27.4892 123.288 27.7569C123.605 28.0404 123.763 28.3947 123.763 28.82C123.763 29.2295 123.723 29.6704 123.644 30.1429C124.783 30.5682 126.001 30.7808 127.298 30.7808ZM152.95 32.2455L151.55 32.2691C150.126 32.2691 149.248 32.0486 148.916 31.6076C148.758 31.4186 148.679 31.1824 148.679 30.8989C148.679 30.6312 148.789 30.4422 149.011 30.3319C149.232 30.2217 149.477 30.1666 149.746 30.1666C150 30.1508 150.237 30.0642 150.458 29.9067C150.68 29.7492 150.791 29.4972 150.791 29.1507V24.4495C150.791 22.4809 150.553 21.024 150.079 20.0791C149.557 19.0239 148.481 18.4963 146.851 18.4963C145.111 18.4963 143.893 19.0396 143.197 20.1263C142.58 21.1343 142.272 22.6068 142.272 24.544V29.1507C142.272 29.7807 142.62 30.1114 143.316 30.1429C144.012 30.1902 144.36 30.4737 144.36 30.9934C144.36 31.5761 144.028 31.9384 143.363 32.0801C142.889 32.1903 142.216 32.2455 141.346 32.2455L139.946 32.2691C138.522 32.2691 137.644 32.0486 137.312 31.6076C137.17 31.4186 137.099 31.1824 137.099 30.8989C137.099 30.6312 137.202 30.4422 137.407 30.3319C137.629 30.2217 137.874 30.1666 138.143 30.1666C138.412 30.1508 138.649 30.0642 138.855 29.9067C139.076 29.7492 139.187 29.4972 139.187 29.1507V11.5744C139.187 10.9444 138.799 10.5664 138.024 10.4404C137.47 10.3617 137.138 10.2672 137.027 10.157C136.917 10.0625 136.861 9.88921 136.861 9.63722C136.861 9.40098 136.972 9.18836 137.194 8.99937C137.431 8.81038 137.731 8.66863 138.095 8.57414C138.744 8.40089 139.472 8.31427 140.278 8.31427C141.607 8.31427 142.272 8.71588 142.272 9.5191V18.8979C143.743 17.2442 145.61 16.4173 147.872 16.4173C150.118 16.4173 151.676 16.9922 152.546 18.1419C153.432 19.2916 153.875 21.024 153.875 23.3392V29.1507C153.875 29.7807 154.223 30.1114 154.919 30.1429C155.615 30.1902 155.963 30.4737 155.963 30.9934C155.963 31.5761 155.639 31.9384 154.991 32.0801C154.484 32.1903 153.804 32.2455 152.95 32.2455ZM160.662 21.9926C160.251 21.9926 159.792 21.8351 159.286 21.5201C158.779 21.2051 158.526 20.7957 158.526 20.2917C158.526 19.772 158.677 19.2837 158.977 18.827C159.262 18.386 159.642 18.0238 160.116 17.7403C160.575 17.4568 161.113 17.2127 161.73 17.0079C162.853 16.6614 164.063 16.4882 165.36 16.4882C167.543 16.4882 169.133 16.9686 170.13 17.9293C171.111 18.89 171.601 20.4807 171.601 22.7013V27.4498C171.601 28.6152 171.744 29.3397 172.028 29.6232C172.107 29.7019 172.345 29.7964 172.74 29.9067C173.848 30.2532 174.401 30.5209 174.401 30.7099C174.401 31.8439 173.238 32.4108 170.913 32.4108C170.043 32.4108 169.473 32.214 169.204 31.8202C168.936 31.4265 168.793 30.7257 168.777 29.7177C168.287 30.5839 167.543 31.2848 166.547 31.8202C165.55 32.3557 164.482 32.6235 163.343 32.6235C162.22 32.6235 161.263 32.4817 160.472 32.1982C159.681 31.899 159.04 31.4265 158.55 30.7808C158.06 30.1351 157.814 29.4342 157.814 28.6782C157.814 27.9223 157.901 27.3159 158.075 26.8592C158.234 26.4025 158.447 26.0166 158.716 25.7016C158.969 25.3866 159.325 25.1031 159.784 24.8511C160.227 24.6149 160.646 24.418 161.042 24.2605C161.421 24.1188 161.92 23.9928 162.537 23.8825C163.454 23.7093 164.221 23.5833 164.838 23.5046C165.455 23.4416 165.772 23.4022 165.787 23.3864C165.851 23.3864 166.222 23.3471 166.903 23.2683C167.567 23.2053 168.097 23.0636 168.493 22.8431C168.493 20.7957 168.216 19.457 167.662 18.827C167.172 18.2915 166.373 18.0238 165.265 18.0238C164.158 18.0238 163.32 18.3073 162.75 18.8742C162.196 19.4412 161.92 20.3389 161.92 21.5674L161.943 21.9217C161.485 21.969 161.057 21.9926 160.662 21.9926ZM168.493 24.3078C167.765 24.5755 166.934 24.7566 166.001 24.8511C165.083 24.9614 164.356 25.0795 163.818 25.2055C163.296 25.3472 162.853 25.5205 162.489 25.7252C161.666 26.1977 161.255 27.0167 161.255 28.1821C161.255 30.0248 162.339 30.9461 164.506 30.9461C166.373 30.9461 167.559 30.0563 168.065 28.2766C168.35 27.2687 168.493 25.9457 168.493 24.3078ZM180.784 32.2455L179.384 32.2691C177.976 32.2691 177.106 32.0486 176.774 31.6076C176.616 31.4186 176.537 31.1824 176.537 30.8989C176.537 30.6312 176.648 30.4422 176.869 30.3319C177.091 30.2217 177.328 30.1666 177.581 30.1666C177.85 30.1508 178.095 30.0642 178.317 29.9067C178.522 29.7492 178.625 29.4972 178.625 29.1507V21.1894C178.625 20.2287 178.514 19.6302 178.293 19.394C178.056 19.1735 177.858 19.0317 177.7 18.9687C177.541 18.9057 177.296 18.827 176.964 18.7325C176.632 18.638 176.355 18.5356 176.133 18.4254C175.928 18.3309 175.825 18.1891 175.825 18.0001C175.825 17.1339 176.988 16.7008 179.313 16.7008C180.294 16.7008 180.919 16.8741 181.188 17.2206C181.457 17.5513 181.591 18.3309 181.591 19.5593C181.955 18.6301 182.564 17.9057 183.418 17.3859C184.257 16.8504 185.127 16.5827 186.029 16.5827C186.914 16.5827 187.65 16.7796 188.235 17.1733C188.805 17.5513 189.09 18.0316 189.09 18.6144C189.09 19.1971 188.9 19.6696 188.52 20.0318C188.14 20.3783 187.682 20.5515 187.144 20.5515C186.59 20.5515 186.116 20.4019 185.72 20.1027C185.325 19.8192 185.064 19.4491 184.937 18.9924C184.652 18.9451 184.423 18.9215 184.249 18.9215C182.556 18.9215 181.71 20.8508 181.71 24.7094V29.1507C181.71 29.7807 182.058 30.1114 182.754 30.1429C183.45 30.1902 183.798 30.4737 183.798 30.9934C183.798 31.5761 183.474 31.9384 182.825 32.0801C182.335 32.1903 181.654 32.2455 180.784 32.2455ZM192.341 30.4737C190.854 29.009 190.11 27.0718 190.11 24.6621C190.11 22.2367 190.861 20.2681 192.364 18.7561C193.867 17.2442 195.789 16.4882 198.131 16.4882C199.981 16.4882 201.54 17.0788 202.805 18.26C204.087 19.457 204.727 20.9532 204.727 22.7486C204.727 23.6148 204.031 24.0479 202.639 24.0479H193.242C193.274 25.7961 193.843 27.2687 194.951 28.4656C196.058 29.6626 197.466 30.261 199.175 30.261C200.298 30.261 201.389 29.9303 202.449 29.2688C203.003 28.9223 203.359 28.7491 203.517 28.7491C203.675 28.7491 203.857 28.8279 204.063 28.9853C204.269 29.1428 204.371 29.3318 204.371 29.5523C204.371 30.1508 203.984 30.702 203.209 31.206C202.449 31.71 201.611 32.0801 200.693 32.3163C199.776 32.5526 198.969 32.6707 198.273 32.6707C195.821 32.6707 193.843 31.9384 192.341 30.4737ZM201.737 22.347C201.706 21.1185 201.381 20.1184 200.764 19.3467C200.132 18.5592 199.214 18.1655 198.012 18.1655C196.81 18.1655 195.758 18.5986 194.856 19.4648C193.954 20.3311 193.472 21.3154 193.408 22.4179H197.205C198.898 22.4179 200.409 22.3942 201.737 22.347ZM213.934 30.7808C216.37 30.7808 217.589 30.0327 217.589 28.5365C217.589 27.4183 216.489 26.5442 214.29 25.9142C213.879 25.7882 213.381 25.6465 212.795 25.489C211.704 25.2055 210.968 24.985 210.588 24.8275C209.639 24.4653 208.832 23.9298 208.168 23.2211C207.504 22.5281 207.171 21.7013 207.171 20.7405C207.171 19.5121 207.765 18.4884 208.951 17.6694C210.138 16.8504 211.569 16.441 213.246 16.441C214.876 16.441 216.41 16.7323 217.85 17.315C218.546 17.6143 219.115 18.0159 219.558 18.5199C219.985 19.0396 220.199 19.583 220.199 20.1499C220.199 20.7012 219.977 21.15 219.534 21.4965C219.091 21.8273 218.625 21.9926 218.134 21.9926C217.66 21.9926 217.343 21.9454 217.185 21.8509C217.027 21.7564 216.948 21.5438 216.948 21.213C216.948 19.1341 215.841 18.0946 213.626 18.0946C212.708 18.0946 211.909 18.2994 211.229 18.7089C210.549 19.1026 210.209 19.6223 210.209 20.2681C210.209 21.2918 211.269 22.095 213.388 22.6777C213.721 22.7722 214.124 22.8746 214.599 22.9848C215.073 23.1108 215.508 23.2368 215.904 23.3628C216.315 23.4888 216.734 23.6384 217.161 23.8117C217.604 23.9692 218.071 24.1818 218.561 24.4495C219.036 24.7173 219.432 25.0086 219.748 25.3236C220.444 26.0323 220.792 26.8907 220.792 27.8986C220.792 28.9066 220.452 29.7807 219.772 30.5209C218.411 31.9541 216.465 32.6707 213.934 32.6707C212.273 32.6707 210.747 32.3951 209.355 31.8439C208.643 31.5761 208.073 31.1903 207.646 30.6863C207.203 30.1981 206.982 29.6704 206.982 29.1035C206.982 28.5522 207.163 28.1191 207.527 27.8041C207.875 27.5049 208.279 27.3553 208.738 27.3553C209.196 27.3553 209.584 27.4892 209.9 27.7569C210.217 28.0404 210.375 28.3947 210.375 28.82C210.375 29.2295 210.335 29.6704 210.256 30.1429C211.411 30.5682 212.637 30.7808 213.934 30.7808Z" fill="white"/>
<path d="M33.4733 34.7475L39.4185 31.7778V25.1702L33.4733 28.1404V34.7475ZM33.4733 27.4296L39.4185 24.46V17.8528L33.4733 20.8225V27.4296ZM25.8383 3.31566L19.8586 0.347687L13.9135 3.31738L19.8932 6.28536L25.8383 3.31566ZM19.2475 6.60825L13.2674 3.64028L7.32232 6.60997L13.3024 9.57795L19.2475 6.60825ZM26.5315 9.5801L32.4766 6.60997L26.4926 3.64028L20.5475 6.60997L26.5315 9.5801ZM13.9567 9.90256L19.9407 12.8727L25.8858 9.90256L19.9018 6.93287L13.9567 9.90256ZM33.127 6.93287L27.1819 9.90256L33.1658 12.8723L39.111 9.90256L33.127 6.93287ZM6.67495 6.93287L0.729831 9.90256L6.70993 12.8705L12.6551 9.90084L6.67495 6.93287ZM13.3089 10.2255L7.36378 13.1952L13.3478 16.1653L19.2929 13.1952L13.3089 10.2255ZM20.2914 41.3326L26.2365 38.363V31.7558L20.2914 34.7255V41.3326ZM20.2914 34.0148L26.2365 31.0451V24.438L20.2914 27.4077V34.0148ZM19.9446 13.518L13.9995 16.4877L19.9834 19.4574L25.9286 16.4877L19.9446 13.518ZM0.385199 31.7778L6.3653 34.7457V28.1386L0.385199 25.1707V31.7778ZM0.385199 24.46L6.3653 27.4279V20.8208L0.385199 17.8528V24.46ZM0.385199 17.1095L6.3653 20.0774V13.4703L0.385199 10.5023V17.1095ZM7.01958 35.0704L13.0036 38.0401V31.433L7.01958 28.4633V35.0704ZM7.01958 27.7525L13.0036 30.7227V24.1151L7.01958 21.1454V27.7525ZM7.01958 20.402L13.0036 23.3717V16.7646L7.01958 13.7949V20.402ZM13.6535 38.363L19.6375 41.3326V34.7255L13.6535 31.7558V38.363ZM13.6535 31.0451L19.6375 34.0148V27.4077L13.6535 24.438V31.0451ZM13.6535 23.6946L19.6375 26.6643V20.0572L13.6535 17.0875V23.6946ZM26.8821 38.0401L32.8273 35.0704V28.4628L26.8821 31.433V38.0401ZM26.8821 30.7222L32.8273 27.7525V21.1454L26.8821 24.1151V30.7222ZM26.5358 10.2255L20.5907 13.1952L26.5746 16.1648L32.5198 13.1952L26.5358 10.2255ZM33.4733 13.5696V20.1767L39.4185 17.2071V10.5999L33.4733 13.5696ZM20.2914 26.6643L26.2365 23.6946V17.0875L20.2914 20.0572V26.6643ZM26.8821 23.4693L32.8273 20.4996V13.8925L26.8821 16.8622V23.4693Z" fill="white"/>
</g>
<defs>
<clipPath id="clip0_1_18">
<rect width="221" height="41" fill="white"/>
</clipPath>
</defs>
</svg>
