<svg width="40" height="41" viewBox="0 0 40 41" fill="none" xmlns="http://www.w3.org/2000/svg">
<path d="M33.4733 34.7475L39.4185 31.7778V25.1702L33.4733 28.1404V34.7475ZM33.4733 27.4296L39.4185 24.46V17.8528L33.4733 20.8225V27.4296ZM25.8383 3.31566L19.8586 0.347687L13.9135 3.31738L19.8932 6.28536L25.8383 3.31566ZM19.2475 6.60825L13.2674 3.64028L7.32232 6.60997L13.3024 9.57795L19.2475 6.60825ZM26.5315 9.5801L32.4766 6.60997L26.4926 3.64028L20.5475 6.60997L26.5315 9.5801ZM13.9567 9.90256L19.9407 12.8727L25.8858 9.90256L19.9018 6.93287L13.9567 9.90256ZM33.127 6.93287L27.1819 9.90256L33.1658 12.8723L39.111 9.90256L33.127 6.93287ZM6.67495 6.93287L0.729831 9.90256L6.70993 12.8705L12.6551 9.90084L6.67495 6.93287ZM13.3089 10.2255L7.36378 13.1952L13.3478 16.1653L19.2929 13.1952L13.3089 10.2255ZM20.2914 41.3326L26.2365 38.363V31.7558L20.2914 34.7255V41.3326ZM20.2914 34.0148L26.2365 31.0451V24.438L20.2914 27.4077V34.0148ZM19.9446 13.518L13.9995 16.4877L19.9834 19.4574L25.9286 16.4877L19.9446 13.518ZM0.385199 31.7778L6.3653 34.7457V28.1386L0.385199 25.1707V31.7778ZM0.385199 24.46L6.3653 27.4279V20.8208L0.385199 17.8528V24.46ZM0.385199 17.1095L6.3653 20.0774V13.4703L0.385199 10.5023V17.1095ZM7.01958 35.0704L13.0036 38.0401V31.433L7.01958 28.4633V35.0704ZM7.01958 27.7525L13.0036 30.7227V24.1151L7.01958 21.1454V27.7525ZM7.01958 20.402L13.0036 23.3717V16.7646L7.01958 13.7949V20.402ZM13.6535 38.363L19.6375 41.3326V34.7255L13.6535 31.7558V38.363ZM13.6535 31.0451L19.6375 34.0148V27.4077L13.6535 24.438V31.0451ZM13.6535 23.6946L19.6375 26.6643V20.0572L13.6535 17.0875V23.6946ZM26.8821 38.0401L32.8273 35.0704V28.4628L26.8821 31.433V38.0401ZM26.8821 30.7222L32.8273 27.7525V21.1454L26.8821 24.1151V30.7222ZM26.5358 10.2255L20.5907 13.1952L26.5746 16.1648L32.5198 13.1952L26.5358 10.2255ZM33.4733 13.5696V20.1767L39.4185 17.2071V10.5999L33.4733 13.5696ZM20.2914 26.6643L26.2365 23.6946V17.0875L20.2914 20.0572V26.6643ZM26.8821 23.4693L32.8273 20.4996V13.8925L26.8821 16.8622V23.4693Z" fill="white"/>
</svg>
