<svg xmlns="http://www.w3.org/2000/svg" xmlns:xlink="http://www.w3.org/1999/xlink" xmlns:lucid="lucid" width="1882" height="874"><g transform="translate(-59 1)" lucid:page-tab-id="0_0"><path d="M0-500h2000v1500H0z" fill="#fff"/><path d="M660 108a8 8 0 0 1 8-8h324a8 8 0 0 1 8 8v248a8 8 0 0 1-8 8H668a8 8 0 0 1-8-8z" fill="#fff"/><path d="M660 108a8 8 0 0 1 8-8h324a8 8 0 0 1 8 8v248a8 8 0 0 1-8 8H668a8 8 0 0 1-8-8zM660 140h340M720.7 140v224M920.9 140v224" stroke="#000" stroke-width="2" fill="none"/><use xlink:href="#a" transform="matrix(1,0,0,1,670,100) translate(141.29248046875 26.5478515625)"/><use xlink:href="#b" transform="matrix(1,0,0,1,665,142.5) translate(13.705078125 20.0478515625)"/><use xlink:href="#c" transform="matrix(1,0,0,1,725.6865309305518,142.5) translate(87.8095703125 20.0478515625)"/><use xlink:href="#d" transform="matrix(1,0,0,1,925.8894687627376,142.5) translate(24.55859375 20.0478515625)"/><use xlink:href="#e" transform="matrix(1,0,0,1,725.6865309305518,174.5) translate(65.916015625 20.0478515625)"/><use xlink:href="#f" transform="matrix(1,0,0,1,925.8894687627376,174.5) translate(19.0654296875 20.0478515625)"/><use xlink:href="#g" transform="matrix(1,0,0,1,725.6865309305518,206.5) translate(71.998046875 20.0478515625)"/><use xlink:href="#f" transform="matrix(1,0,0,1,925.8894687627376,206.5) translate(19.0654296875 20.0478515625)"/><use xlink:href="#h" transform="matrix(1,0,0,1,725.6865309305518,238.5) translate(72.9560546875 20.0478515625)"/><use xlink:href="#f" transform="matrix(1,0,0,1,925.8894687627376,238.5) translate(19.0654296875 20.0478515625)"/><use xlink:href="#i" transform="matrix(1,0,0,1,725.6865309305518,270.5) translate(53.9453125 20.0478515625)"/><use xlink:href="#f" transform="matrix(1,0,0,1,925.8894687627376,270.5) translate(19.0654296875 20.0478515625)"/><use xlink:href="#j" transform="matrix(1,0,0,1,725.6865309305518,302.5) translate(79.43798828125 20.0478515625)"/><use xlink:href="#f" transform="matrix(1,0,0,1,925.8894687627376,302.5) translate(19.0654296875 20.0478515625)"/><use xlink:href="#k" transform="matrix(1,0,0,1,725.6865309305518,334.5) translate(51.01416015625 20.0478515625)"/><use xlink:href="#l" transform="matrix(1,0,0,1,925.8894687627376,334.5) translate(16.33203125 20.0478515625)"/><path d="M1180 8a8 8 0 0 1 8-8h324a8 8 0 0 1 8 8v120a8 8 0 0 1-8 8h-324a8 8 0 0 1-8-8z" fill="#fff"/><path d="M1180 8a8 8 0 0 1 8-8h324a8 8 0 0 1 8 8v120a8 8 0 0 1-8 8h-324a8 8 0 0 1-8-8zM1180 40h340M1252.1 40v96M1457.87 40v96" stroke="#000" stroke-width="2" fill="none"/><use xlink:href="#m" transform="matrix(1,0,0,1,1190,0) translate(134.57763671875 26.5478515625)"/><use xlink:href="#n" transform="matrix(1,0,0,1,1185,42.5) translate(3.22119140625 20.0478515625)"/><use xlink:href="#o" transform="matrix(1,0,0,1,1185,42.5) translate(37.05908203125 20.0478515625)"/><use xlink:href="#p" transform="matrix(1,0,0,1,1257.0897032901553,42.5) translate(52.0068359375 20.0478515625)"/><use xlink:href="#d" transform="matrix(1,0,0,1,1462.8740234375,42.5) translate(16.05859375 20.0478515625)"/><use xlink:href="#n" transform="matrix(1,0,0,1,1185,74.5) translate(3.22119140625 20.0478515625)"/><use xlink:href="#o" transform="matrix(1,0,0,1,1185,74.5) translate(37.05908203125 20.0478515625)"/><use xlink:href="#q" transform="matrix(1,0,0,1,1257.0897032901553,74.5) translate(47.462890625 20.0478515625)"/><use xlink:href="#d" transform="matrix(1,0,0,1,1462.8740234375,74.5) translate(16.05859375 20.0478515625)"/><use xlink:href="#k" transform="matrix(1,0,0,1,1257.0897032901553,106.5) translate(53.51416015625 20.0478515625)"/><use xlink:href="#l" transform="matrix(1,0,0,1,1462.8740234375,106.5) translate(7.83203125 20.0478515625)"/><path d="M1021 156h106a12 12 0 0 0 12-12V68a12 12 0 0 1 12-12h8.6M1001 156h20m0 10v-20M1178.78 56h-20m20-10l-20 10m20 10l-20-10" stroke="#3a414a" fill="none"/><path d="M1021 156h106a12 12 0 0 0 12-12v-44a12 12 0 0 1 12-12h8.6M1001 156h20m0 10v-20M1178.78 88h-20m20-10l-20 10m20 10l-20-10" stroke="#3a414a" fill="none"/><path d="M1600 560.92a8 8 0 0 1 8-8h324a8 8 0 0 1 8 8v88a8 8 0 0 1-8 8h-324a8 8 0 0 1-8-8z" fill="#fff"/><path d="M1600 560.92a8 8 0 0 1 8-8h324a8 8 0 0 1 8 8v88a8 8 0 0 1-8 8h-324a8 8 0 0 1-8-8zM1600 592.92h340M1678.28 592.92v64M1877.87 592.92v64" stroke="#000" stroke-width="2" fill="none"/><use xlink:href="#r" transform="matrix(1,0,0,1,1610,552.9176377413665) translate(89.80615234375 26.5478515625)"/><use xlink:href="#b" transform="matrix(1,0,0,1,1605,595.4176377413665) translate(22.705078125 20.0478515625)"/><use xlink:href="#c" transform="matrix(1,0,0,1,1683.2802640803504,595.4176377413665) translate(87.3095703125 20.0478515625)"/><use xlink:href="#s" transform="matrix(1,0,0,1,1882.8740234375,595.4176377413665) translate(3.560546875 20.0478515625)"/><use xlink:href="#g" transform="matrix(1,0,0,1,1683.2802640803504,627.4176377413665) translate(71.498046875 20.0478515625)"/><use xlink:href="#f" transform="matrix(1,0,0,1,1882.8740234375,627.4176377413665) translate(10.5654296875 20.0478515625)"/><path d="M1180 496.94a8 8 0 0 1 8-8h324a8 8 0 0 1 8 8v312a8 8 0 0 1-8 8h-324a8 8 0 0 1-8-8z" fill="#fff"/><path d="M1180 496.94a8 8 0 0 1 8-8h324a8 8 0 0 1 8 8v312a8 8 0 0 1-8 8h-324a8 8 0 0 1-8-8zM1180 528.94h340M1250.34 528.94v288M1408.94 528.94v288" stroke="#000" stroke-width="2" fill="none"/><use xlink:href="#t" transform="matrix(1,0,0,1,1190,488.94116486494306) translate(137.5 26.5478515625)"/><use xlink:href="#b" transform="matrix(1,0,0,1,1185,531.4411648649431) translate(18.705078125 20.0478515625)"/><use xlink:href="#c" transform="matrix(1,0,0,1,1255.3420352603036,531.4411648649431) translate(66.8095703125 20.0478515625)"/><use xlink:href="#s" transform="matrix(1,0,0,1,1413.9421501961738,531.4411648649431) translate(28.060546875 20.0478515625)"/><use xlink:href="#u" transform="matrix(1,0,0,1,1185,563.4411648649431) translate(19.14013671875 20.0478515625)"/><use xlink:href="#v" transform="matrix(1,0,0,1,1255.3420352603036,563.4411648649431) translate(43.6943359375 20.0478515625)"/><use xlink:href="#d" transform="matrix(1,0,0,1,1413.9421501961738,563.4411648649431) translate(40.55859375 20.0478515625)"/><use xlink:href="#u" transform="matrix(1,0,0,1,1185,595.4411648649431) translate(19.14013671875 20.0478515625)"/><use xlink:href="#w" transform="matrix(1,0,0,1,1255.3420352603036,595.4411648649431) translate(25.22412109375 20.0478515625)"/><use xlink:href="#d" transform="matrix(1,0,0,1,1413.9421501961738,595.4411648649431) translate(40.55859375 20.0478515625)"/><use xlink:href="#u" transform="matrix(1,0,0,1,1185,627.4411648649431) translate(19.14013671875 20.0478515625)"/><use xlink:href="#x" transform="matrix(1,0,0,1,1255.3420352603036,627.4411648649431) translate(31.4951171875 20.0478515625)"/><use xlink:href="#y" transform="matrix(1,0,0,1,1413.9421501961738,627.4411648649431) translate(17.5048828125 20.0478515625)"/><use xlink:href="#z" transform="matrix(1,0,0,1,1413.9421501961738,627.4411648649431) translate(43.4501953125 20.0478515625)"/><use xlink:href="#A" transform="matrix(1,0,0,1,1413.9421501961738,627.4411648649431) translate(54.498046875 20.0478515625)"/><use xlink:href="#B" transform="matrix(1,0,0,1,1255.3420352603036,659.4411648649431) translate(50.68603515625 20.0478515625)"/><use xlink:href="#d" transform="matrix(1,0,0,1,1413.9421501961738,659.4411648649431) translate(40.55859375 20.0478515625)"/><use xlink:href="#C" transform="matrix(1,0,0,1,1255.3420352603036,691.4411648649431) translate(35.3447265625 20.0478515625)"/><use xlink:href="#f" transform="matrix(1,0,0,1,1413.9421501961738,691.4411648649431) translate(35.0654296875 20.0478515625)"/><use xlink:href="#D" transform="matrix(1,0,0,1,1255.3420352603036,723.4411648649431) translate(41.013671875 20.0478515625)"/><use xlink:href="#E" transform="matrix(1,0,0,1,1413.9421501961738,723.4411648649431) translate(12.01171875 20.0478515625)"/><use xlink:href="#z" transform="matrix(1,0,0,1,1413.9421501961738,723.4411648649431) translate(48.943359375 20.0478515625)"/><use xlink:href="#A" transform="matrix(1,0,0,1,1413.9421501961738,723.4411648649431) translate(59.9912109375 20.0478515625)"/><use xlink:href="#F" transform="matrix(1,0,0,1,1255.3420352603036,755.4411648649431) translate(55.6826171875 20.0478515625)"/><use xlink:href="#E" transform="matrix(1,0,0,1,1413.9421501961738,755.4411648649431) translate(12.01171875 20.0478515625)"/><use xlink:href="#z" transform="matrix(1,0,0,1,1413.9421501961738,755.4411648649431) translate(48.943359375 20.0478515625)"/><use xlink:href="#A" transform="matrix(1,0,0,1,1413.9421501961738,755.4411648649431) translate(59.9912109375 20.0478515625)"/><use xlink:href="#k" transform="matrix(1,0,0,1,1255.3420352603036,787.4411648649431) translate(30.01416015625 20.0478515625)"/><use xlink:href="#l" transform="matrix(1,0,0,1,1413.9421501961738,787.4411648649431) translate(32.33203125 20.0478515625)"/><path d="M1180 228a8 8 0 0 1 8-8h324a8 8 0 0 1 8 8v184a8 8 0 0 1-8 8h-324a8 8 0 0 1-8-8z" fill="#fff"/><path d="M1180 228a8 8 0 0 1 8-8h324a8 8 0 0 1 8 8v184a8 8 0 0 1-8 8h-324a8 8 0 0 1-8-8zM1180 260h340M1251.2 260v160M1418.23 260v160" stroke="#000" stroke-width="2" fill="none"/><use xlink:href="#G" transform="matrix(1,0,0,1,1190,220) translate(125.740234375 26.5478515625)"/><use xlink:href="#b" transform="matrix(1,0,0,1,1185,262.5) translate(19.205078125 20.0478515625)"/><use xlink:href="#c" transform="matrix(1,0,0,1,1256.198912755117,262.5) translate(71.3095703125 20.0478515625)"/><use xlink:href="#s" transform="matrix(1,0,0,1,1423.2340288453233,262.5) translate(23.060546875 20.0478515625)"/><use xlink:href="#u" transform="matrix(1,0,0,1,1185,294.5) translate(19.64013671875 20.0478515625)"/><use xlink:href="#v" transform="matrix(1,0,0,1,1256.198912755117,294.5) translate(48.1943359375 20.0478515625)"/><use xlink:href="#d" transform="matrix(1,0,0,1,1423.2340288453233,294.5) translate(35.55859375 20.0478515625)"/><use xlink:href="#B" transform="matrix(1,0,0,1,1256.198912755117,326.5) translate(55.18603515625 20.0478515625)"/><use xlink:href="#d" transform="matrix(1,0,0,1,1423.2340288453233,326.5) translate(35.55859375 20.0478515625)"/><use xlink:href="#F" transform="matrix(1,0,0,1,1256.198912755117,358.5) translate(60.1826171875 20.0478515625)"/><use xlink:href="#E" transform="matrix(1,0,0,1,1423.2340288453233,358.5) translate(7.01171875 20.0478515625)"/><use xlink:href="#z" transform="matrix(1,0,0,1,1423.2340288453233,358.5) translate(43.943359375 20.0478515625)"/><use xlink:href="#A" transform="matrix(1,0,0,1,1423.2340288453233,358.5) translate(54.9912109375 20.0478515625)"/><use xlink:href="#k" transform="matrix(1,0,0,1,1256.198912755117,390.5) translate(34.51416015625 20.0478515625)"/><use xlink:href="#l" transform="matrix(1,0,0,1,1423.2340288453233,390.5) translate(27.33203125 20.0478515625)"/><path d="M1600 696a8 8 0 0 1 8-8h324a8 8 0 0 1 8 8v88a8 8 0 0 1-8 8h-324a8 8 0 0 1-8-8z" fill="#fff"/><path d="M1600 696a8 8 0 0 1 8-8h324a8 8 0 0 1 8 8v88a8 8 0 0 1-8 8h-324a8 8 0 0 1-8-8zM1600 728h340M1692 728v64M1877.87 728v64" stroke="#000" stroke-width="2" fill="none"/><use xlink:href="#H" transform="matrix(1,0,0,1,1610,688) translate(128.38134765625 26.5478515625)"/><use xlink:href="#b" transform="matrix(1,0,0,1,1605,730.5) translate(29.205078125 20.0478515625)"/><use xlink:href="#c" transform="matrix(1,0,0,1,1696.9991436543596,730.5) translate(80.3095703125 20.0478515625)"/><use xlink:href="#s" transform="matrix(1,0,0,1,1882.8740234375,730.5) translate(3.560546875 20.0478515625)"/><use xlink:href="#I" transform="matrix(1,0,0,1,1696.9991436543596,762.5) translate(69.06396484375 20.0478515625)"/><use xlink:href="#f" transform="matrix(1,0,0,1,1882.8740234375,762.5) translate(10.5654296875 20.0478515625)"/><path d="M660 648a8 8 0 0 1 8-8h324a8 8 0 0 1 8 8v216a8 8 0 0 1-8 8H668a8 8 0 0 1-8-8z" fill="#fff"/><path d="M660 648a8 8 0 0 1 8-8h324a8 8 0 0 1 8 8v216a8 8 0 0 1-8 8H668a8 8 0 0 1-8-8zM660 680h340M711.64 680v192M898.23 680v192" stroke="#000" stroke-width="2" fill="none"/><use xlink:href="#J" transform="matrix(1,0,0,1,670,640) translate(141.39794921875 26.5478515625)"/><use xlink:href="#b" transform="matrix(1,0,0,1,665,682.5) translate(9.205078125 20.0478515625)"/><use xlink:href="#c" transform="matrix(1,0,0,1,716.640625,682.5) translate(80.8095703125 20.0478515625)"/><use xlink:href="#s" transform="matrix(1,0,0,1,903.2340288453235,682.5) translate(23.060546875 20.0478515625)"/><use xlink:href="#u" transform="matrix(1,0,0,1,665,714.5) translate(9.64013671875 20.0478515625)"/><use xlink:href="#v" transform="matrix(1,0,0,1,716.640625,714.5) translate(57.6943359375 20.0478515625)"/><use xlink:href="#d" transform="matrix(1,0,0,1,903.2340288453235,714.5) translate(35.55859375 20.0478515625)"/><use xlink:href="#u" transform="matrix(1,0,0,1,665,746.5) translate(9.64013671875 20.0478515625)"/><use xlink:href="#K" transform="matrix(1,0,0,1,716.640625,746.5) translate(42.14208984375 20.0478515625)"/><use xlink:href="#y" transform="matrix(1,0,0,1,903.2340288453235,746.5) translate(12.5048828125 20.0478515625)"/><use xlink:href="#z" transform="matrix(1,0,0,1,903.2340288453235,746.5) translate(38.4501953125 20.0478515625)"/><use xlink:href="#A" transform="matrix(1,0,0,1,903.2340288453235,746.5) translate(49.498046875 20.0478515625)"/><use xlink:href="#u" transform="matrix(1,0,0,1,665,778.5) translate(9.64013671875 20.0478515625)"/><use xlink:href="#L" transform="matrix(1,0,0,1,716.640625,778.5) translate(53.90185546875 20.0478515625)"/><use xlink:href="#y" transform="matrix(1,0,0,1,903.2340288453235,778.5) translate(12.5048828125 20.0478515625)"/><use xlink:href="#z" transform="matrix(1,0,0,1,903.2340288453235,778.5) translate(38.4501953125 20.0478515625)"/><use xlink:href="#A" transform="matrix(1,0,0,1,903.2340288453235,778.5) translate(49.498046875 20.0478515625)"/><use xlink:href="#M" transform="matrix(1,0,0,1,716.640625,810.5) translate(40.79296875 20.0478515625)"/><use xlink:href="#f" transform="matrix(1,0,0,1,903.2340288453235,810.5) translate(30.0654296875 20.0478515625)"/><use xlink:href="#k" transform="matrix(1,0,0,1,716.640625,842.5) translate(44.01416015625 20.0478515625)"/><use xlink:href="#l" transform="matrix(1,0,0,1,903.2340288453235,842.5) translate(27.33203125 20.0478515625)"/><path d="M60 188a8 8 0 0 1 8-8h364a8 8 0 0 1 8 8v152a8 8 0 0 1-8 8H68a8 8 0 0 1-8-8z" fill="#fff"/><path d="M60 188a8 8 0 0 1 8-8h364a8 8 0 0 1 8 8v152a8 8 0 0 1-8 8H68a8 8 0 0 1-8-8zM60 220h380M111.64 220v128M338.23 220v128" stroke="#000" stroke-width="2" fill="none"/><use xlink:href="#N" transform="matrix(1,0,0,1,70,180) translate(165.65625 26.5478515625)"/><use xlink:href="#b" transform="matrix(1,0,0,1,65,222.5) translate(9.205078125 20.0478515625)"/><use xlink:href="#c" transform="matrix(1,0,0,1,116.640625,222.5) translate(100.8095703125 20.0478515625)"/><use xlink:href="#s" transform="matrix(1,0,0,1,343.23402884532334,222.5) translate(23.060546875 20.0478515625)"/><use xlink:href="#u" transform="matrix(1,0,0,1,65,254.5) translate(9.64013671875 20.0478515625)"/><use xlink:href="#v" transform="matrix(1,0,0,1,116.640625,254.5) translate(77.6943359375 20.0478515625)"/><use xlink:href="#d" transform="matrix(1,0,0,1,343.23402884532334,254.5) translate(35.55859375 20.0478515625)"/><use xlink:href="#u" transform="matrix(1,0,0,1,65,286.5) translate(9.64013671875 20.0478515625)"/><use xlink:href="#O" transform="matrix(1,0,0,1,116.640625,286.5) translate(77.7998046875 20.0478515625)"/><use xlink:href="#d" transform="matrix(1,0,0,1,343.23402884532334,286.5) translate(35.55859375 20.0478515625)"/><use xlink:href="#k" transform="matrix(1,0,0,1,116.640625,318.5) translate(64.01416015625 20.0478515625)"/><use xlink:href="#l" transform="matrix(1,0,0,1,343.23402884532334,318.5) translate(27.33203125 20.0478515625)"/><path d="M60 428a8 8 0 0 1 8-8h364a8 8 0 0 1 8 8v184a8 8 0 0 1-8 8H68a8 8 0 0 1-8-8z" fill="#fff"/><path d="M60 428a8 8 0 0 1 8-8h364a8 8 0 0 1 8 8v184a8 8 0 0 1-8 8H68a8 8 0 0 1-8-8zM60 460h380M111.64 460v160M338.23 460v160" stroke="#000" stroke-width="2" fill="none"/><use xlink:href="#P" transform="matrix(1,0,0,1,70,420) translate(140.185546875 26.5478515625)"/><use xlink:href="#b" transform="matrix(1,0,0,1,65,462.5) translate(9.205078125 20.0478515625)"/><use xlink:href="#c" transform="matrix(1,0,0,1,116.640625,462.5) translate(100.8095703125 20.0478515625)"/><use xlink:href="#s" transform="matrix(1,0,0,1,343.23402884532334,462.5) translate(23.060546875 20.0478515625)"/><use xlink:href="#u" transform="matrix(1,0,0,1,65,494.5) translate(9.64013671875 20.0478515625)"/><use xlink:href="#v" transform="matrix(1,0,0,1,116.640625,494.5) translate(77.6943359375 20.0478515625)"/><use xlink:href="#d" transform="matrix(1,0,0,1,343.23402884532334,494.5) translate(35.55859375 20.0478515625)"/><use xlink:href="#u" transform="matrix(1,0,0,1,65,526.5) translate(9.64013671875 20.0478515625)"/><use xlink:href="#O" transform="matrix(1,0,0,1,116.640625,526.5) translate(77.7998046875 20.0478515625)"/><use xlink:href="#d" transform="matrix(1,0,0,1,343.23402884532334,526.5) translate(35.55859375 20.0478515625)"/><use xlink:href="#Q" transform="matrix(1,0,0,1,116.640625,558.5) translate(76.279296875 20.0478515625)"/><use xlink:href="#f" transform="matrix(1,0,0,1,343.23402884532334,558.5) translate(30.0654296875 20.0478515625)"/><use xlink:href="#k" transform="matrix(1,0,0,1,116.640625,590.5) translate(64.01416015625 20.0478515625)"/><use xlink:href="#l" transform="matrix(1,0,0,1,343.23402884532334,590.5) translate(27.33203125 20.0478515625)"/><path d="M1579 744.02h-7a12 12 0 0 1-12-12v-79.08a12 12 0 0 0-12-12h-7.6M1599 744.02h-20m0-10v20M1521.22 640.94h20m-20 10l20-10m-20-10l20 10M1579 608.92h-19v.02h-19.6M1599 608.92h-20m0-10v20M1521.22 608.94h20m-20 10l20-10m-20-10l20 10M1021 156h57a12 12 0 0 1 12 12v128a12 12 0 0 0 12 12h57.6M1001 156h20m0 10v-20M1178.78 308h-20m20-10l-20 10m20 10l-20-10M1541 276h8a12 12 0 0 1 12 12v130a12 12 0 0 1-12 12h-477a12 12 0 0 0-12 12v58a12 12 0 0 1-12 12h-27.6M1521 276h20m0 10v-20M1001.22 512h20m-20 10l20-10m-20-10l20 10M1020.4 544.3h118.28a.32.32 0 0 1 .32.32.32.32 0 0 0 .32.32H1159M1001.22 544.3h20m-20 10l20-10m-20-10l20 10M1179 544.94h-20m0-10v20M639 156h-57a12 12 0 0 0-12 12v548a12 12 0 0 0 12 12h57.6M659 156h-20m0-10v20M658.78 728h-20m20-10l-20 10m20 10l-20-10" stroke="#3a414a" fill="none"/><path d="M639 156h-57a12 12 0 0 0-12 12v88.02a12 12 0 0 1-12 12h-97.6M659 156h-20m0-10v20M441.22 268.02h20m-20 10l20-10m-20-10l20 10" stroke="#3a414a" fill="none"/><path d="M639 156h-57a12 12 0 0 0-12 12v328.46a12 12 0 0 1-12 12h-97.6M659 156h-20m0-10v20M441.22 508.46h20m-20 10l20-10m-20-10l20 10" stroke="#3a414a" fill="none"/><path d="M639 696h-27a12 12 0 0 1-12-12V312.2a12 12 0 0 0-12-12H460.4M659 696h-20m0-10v20M441.22 300.2h20m-20 10l20-10m-20-10l20 10" stroke="#3a414a" fill="none"/><path d="M639 696h-27a12 12 0 0 1-12-12V552.1a12 12 0 0 0-12-12H460.4M659 696h-20m0-10v20M441.22 540.1h20m-20 10l20-10m-20-10l20 10" stroke="#3a414a" fill="none"/><path d="M660 432a8 8 0 0 1 8-8h324a8 8 0 0 1 8 8v120a8 8 0 0 1-8 8H668a8 8 0 0 1-8-8z" fill="#fff"/><path d="M660 432a8 8 0 0 1 8-8h324a8 8 0 0 1 8 8v120a8 8 0 0 1-8 8H668a8 8 0 0 1-8-8zM660 464h340M711.64 464v96M937.87 464v96" stroke="#000" stroke-width="2" fill="none"/><use xlink:href="#R" transform="matrix(1,0,0,1,670,424) translate(99.1357421875 26.5478515625)"/><use xlink:href="#b" transform="matrix(1,0,0,1,665,466.5) translate(9.205078125 20.0478515625)"/><use xlink:href="#c" transform="matrix(1,0,0,1,716.640625,466.5) translate(100.8095703125 20.0478515625)"/><use xlink:href="#s" transform="matrix(1,0,0,1,942.8740234375,466.5) translate(3.560546875 20.0478515625)"/><use xlink:href="#u" transform="matrix(1,0,0,1,665,498.5) translate(9.64013671875 20.0478515625)"/><use xlink:href="#K" transform="matrix(1,0,0,1,716.640625,498.5) translate(62.14208984375 20.0478515625)"/><g><use xlink:href="#d" transform="matrix(1,0,0,1,942.8740234375,498.5) translate(16.05859375 20.0478515625)"/></g><g><use xlink:href="#u" transform="matrix(1,0,0,1,665,530.5) translate(9.64013671875 20.0478515625)"/></g><g><use xlink:href="#L" transform="matrix(1,0,0,1,716.640625,530.5) translate(73.90185546875 20.0478515625)"/></g><g><use xlink:href="#d" transform="matrix(1,0,0,1,942.8740234375,530.5) translate(16.05859375 20.0478515625)"/></g><path d="M1541 276h8a12 12 0 0 1 12 12v130a12 12 0 0 1-12 12h-477a12 12 0 0 0-12 12v306a12 12 0 0 1-12 12h-27M1521 276h20m0 10v-20M1001 760h20m0 10v-20" stroke="#3a414a" fill="none"/><path d="M1021 156h547a12 12 0 0 1 12 12v396.94a12 12 0 0 1-12 12h-27.6M1001 156h20m0 10v-20M1521.22 576.94h20m-20 10l20-10m-20-10l20 10M1159 544.94h-57a12 12 0 0 0-12 12V780a12 12 0 0 1-12 12h-57M1179 544.94h-20m0-10v20M1001 792h20m0 10v-20" stroke="#3a414a" fill="none"/><defs><path fill="#3a414a" d="M537 14c-226 0-379-139-379-422v-710h180v695c0 172 97 275 253 275 160 0 281-109 281-300v-670h181V0H879v-209C806-46 684 14 537 14" id="S"/><path fill="#3a414a" d="M538 24C308 24 148-78 108-271l171-41c32 123 123 178 257 178 156 0 256-77 256-169 0-77-54-128-164-154l-186-44c-203-48-300-148-300-305 0-192 176-326 414-326 230 0 351 112 402 269l-163 42c-31-80-94-158-238-158-133 0-233 69-233 162 0 83 57 129 188 160l169 40c203 48 298 149 298 302 0 196-179 339-441 339" id="T"/><path fill="#3a414a" d="M628 24c-324 0-524-230-524-574 0-343 198-582 503-582 237 0 487 146 487 559v75H286c9 234 145 362 343 362 132 0 231-58 273-172l174 48C1024-91 857 24 628 24zM287-650h624c-17-190-120-322-304-322-192 0-309 151-320 322" id="U"/><path fill="#3a414a" d="M158 0v-1118h174v172h12c41-113 157-188 290-188 26 0 70 2 91 3v181c-11-2-60-10-108-10-161 0-279 109-279 260V0H158" id="V"/><g id="a"><use transform="matrix(0.0087890625,0,0,0.0087890625,0,0)" xlink:href="#S"/><use transform="matrix(0.0087890625,0,0,0.0087890625,10.6435546875,0)" xlink:href="#T"/><use transform="matrix(0.0087890625,0,0,0.0087890625,20.14453125,0)" xlink:href="#U"/><use transform="matrix(0.0087890625,0,0,0.0087890625,30.638671875,0)" xlink:href="#V"/></g><path fill="#3a414a" d="M180 0v-1490h510c348 0 508 209 508 474 0 266-160 477-507 477H370V0H180zm190-706h312c236 0 327-133 327-310 0-176-91-307-329-307H370v617" id="W"/><path fill="#3a414a" d="M180 0v-1490h190c0 262 1 526-3 784 217-279 467-523 702-784h249L716-845 1319 0h-225L585-716 370-489V0H180" id="X"/><g id="b"><use transform="matrix(0.0087890625,0,0,0.0087890625,0,0)" xlink:href="#W"/><use transform="matrix(0.0087890625,0,0,0.0087890625,11.49609375,0)" xlink:href="#X"/></g><path fill="#3a414a" d="M158 0v-1118h180V0H158zm91-1301c-68 0-125-53-125-119s57-119 125-119c69 0 126 53 126 119s-57 119-126 119" id="Y"/><path fill="#3a414a" d="M577 24c-279 0-473-224-473-580 0-354 195-576 474-576 218 0 287 134 324 193h14v-551h180V0H922v-173h-20C865-111 790 24 577 24zm27-161c203 0 314-172 314-421 0-247-108-413-314-413-212 0-317 181-317 413 0 235 108 421 317 421" id="Z"/><g id="c"><use transform="matrix(0.0087890625,0,0,0.0087890625,0,0)" xlink:href="#Y"/><use transform="matrix(0.0087890625,0,0,0.0087890625,4.359375,0)" xlink:href="#Z"/></g><path fill="#3a414a" d="M338-670V0H158v-1118h173l1 207c72-158 192-221 342-221 226 0 378 139 378 422V0H872v-695c0-172-96-275-252-275-161 0-282 109-282 300" id="aa"/><path fill="#3a414a" d="M598-1118v154H368v674c0 100 37 144 132 144 23 0 62-6 92-12L629-6c-37 13-88 20-134 20-193 0-307-107-307-290v-688H20v-154h168v-266h180v266h230" id="ab"/><g id="d"><use transform="matrix(0.0087890625,0,0,0.0087890625,0,0)" xlink:href="#Y"/><use transform="matrix(0.0087890625,0,0,0.0087890625,4.359375,0)" xlink:href="#aa"/><use transform="matrix(0.0087890625,0,0,0.0087890625,14.994140625,0)" xlink:href="#ab"/></g><path fill="#3a414a" d="M409 0L70-1118h191c89 329 165 560 243 925 75-353 154-601 240-925h192c85 325 161 564 235 922 77-354 157-598 244-922h191L1267 0h-179c-86-307-176-590-250-913C763-588 675-308 588 0H409" id="ac"/><path fill="#3a414a" d="M613 24c-304 0-509-231-509-576 0-350 205-580 509-580 216 0 392 114 453 309l-173 49c-33-115-133-197-280-197-223 0-326 196-326 419 0 220 103 415 326 415 150 0 252-85 285-206l172 49C1010-95 832 24 613 24" id="ad"/><path fill="#3a414a" d="M471 26C259 26 90-98 90-318c0-256 228-303 435-329 202-27 287-16 287-108 0-139-79-219-234-219-161 0-248 86-283 164l-173-57c86-203 278-265 451-265 150 0 419 46 419 395V0H815v-152h-12C765-73 660 26 471 26zm31-159c199 0 310-134 310-271v-155c-30 35-226 55-295 64-131 17-246 59-246 186 0 116 97 176 231 176" id="ae"/><path fill="#3a414a" d="M934 0v166H0V0h934" id="af"/><g id="e"><use transform="matrix(0.0087890625,0,0,0.0087890625,0,0)" xlink:href="#ac"/><use transform="matrix(0.0087890625,0,0,0.0087890625,14.4052734375,0)" xlink:href="#ad"/><use transform="matrix(0.0087890625,0,0,0.0087890625,24.8642578125,0)" xlink:href="#ae"/><use transform="matrix(0.0087890625,0,0,0.0087890625,34.9716796875,0)" xlink:href="#af"/><use transform="matrix(0.0087890625,0,0,0.0087890625,43.787109375,0)" xlink:href="#Y"/><use transform="matrix(0.0087890625,0,0,0.0087890625,48.146484375,0)" xlink:href="#Z"/></g><path fill="#3a414a" d="M65 0l393-574-370-544h210c88 136 192 297 267 435 67-142 176-302 264-435h206L661-564 1053 0H844c-94-144-206-310-287-458C484-308 366-142 273 0H65" id="ag"/><g id="f"><use transform="matrix(0.0087890625,0,0,0.0087890625,0,0)" xlink:href="#ab"/><use transform="matrix(0.0087890625,0,0,0.0087890625,5.712890625,0)" xlink:href="#U"/><use transform="matrix(0.0087890625,0,0,0.0087890625,15.802734375,0)" xlink:href="#ag"/><use transform="matrix(0.0087890625,0,0,0.0087890625,25.98046875,0)" xlink:href="#ab"/></g><path fill="#3a414a" d="M158 0v-1118h175l1 205c55-151 181-225 313-225 147 0 245 90 285 228 53-141 190-228 352-228 194 0 352 125 352 384V0h-181v-749c0-161-105-225-225-225-151 0-243 103-243 244V0H807v-767c0-124-93-207-219-207-131 0-250 92-250 270V0H158" id="ah"/><g id="g"><use transform="matrix(0.0087890625,0,0,0.0087890625,0,0)" xlink:href="#aa"/><use transform="matrix(0.0087890625,0,0,0.0087890625,10.634765625,0)" xlink:href="#ae"/><use transform="matrix(0.0087890625,0,0,0.0087890625,20.7421875,0)" xlink:href="#ah"/><use transform="matrix(0.0087890625,0,0,0.0087890625,36.509765625,0)" xlink:href="#U"/></g><path fill="#3a414a" d="M338-1490V0H158v-1490h180" id="ai"/><g id="h"><use transform="matrix(0.0087890625,0,0,0.0087890625,0,0)" xlink:href="#U"/><use transform="matrix(0.0087890625,0,0,0.0087890625,10.494140625,0)" xlink:href="#ah"/><use transform="matrix(0.0087890625,0,0,0.0087890625,26.26171875,0)" xlink:href="#ae"/><use transform="matrix(0.0087890625,0,0,0.0087890625,36.369140625,0)" xlink:href="#Y"/><use transform="matrix(0.0087890625,0,0,0.0087890625,40.728515625,0)" xlink:href="#ai"/></g><path fill="#3a414a" d="M481 0L54-1118h197c107 314 236 620 325 951 87-331 217-637 324-951h197L670 0H481" id="aj"/><g id="i"><use transform="matrix(0.0087890625,0,0,0.0087890625,0,0)" xlink:href="#ae"/><use transform="matrix(0.0087890625,0,0,0.0087890625,9.84375,0)" xlink:href="#aj"/><use transform="matrix(0.0087890625,0,0,0.0087890625,19.8720703125,0)" xlink:href="#ae"/><use transform="matrix(0.0087890625,0,0,0.0087890625,29.9794921875,0)" xlink:href="#ab"/><use transform="matrix(0.0087890625,0,0,0.0087890625,35.9560546875,0)" xlink:href="#ae"/><use transform="matrix(0.0087890625,0,0,0.0087890625,46.0634765625,0)" xlink:href="#V"/><use transform="matrix(0.0087890625,0,0,0.0087890625,52.83984375,0)" xlink:href="#af"/><use transform="matrix(0.0087890625,0,0,0.0087890625,61.048828125,0)" xlink:href="#S"/><use transform="matrix(0.0087890625,0,0,0.0087890625,71.6923828125,0)" xlink:href="#V"/><use transform="matrix(0.0087890625,0,0,0.0087890625,78.75,0)" xlink:href="#ai"/></g><path fill="#3a414a" d="M613 24c-304 0-509-231-509-576 0-350 205-580 509-580 305 0 511 230 511 580 0 345-206 576-511 576zm0-161c226 0 329-195 329-415 0-222-103-419-329-419-223 0-326 196-326 419 0 220 103 415 326 415" id="ak"/><g id="j"><use transform="matrix(0.0087890625,0,0,0.0087890625,0,0)" xlink:href="#V"/><use transform="matrix(0.0087890625,0,0,0.0087890625,6.4775390625,0)" xlink:href="#ak"/><use transform="matrix(0.0087890625,0,0,0.0087890625,17.2705078125,0)" xlink:href="#ai"/><use transform="matrix(0.0087890625,0,0,0.0087890625,21.6298828125,0)" xlink:href="#U"/></g><g id="k"><use transform="matrix(0.0087890625,0,0,0.0087890625,0,0)" xlink:href="#ad"/><use transform="matrix(0.0087890625,0,0,0.0087890625,10.283203125,0)" xlink:href="#V"/><use transform="matrix(0.0087890625,0,0,0.0087890625,16.7607421875,0)" xlink:href="#U"/><use transform="matrix(0.0087890625,0,0,0.0087890625,27.4306640625,0)" xlink:href="#ae"/><use transform="matrix(0.0087890625,0,0,0.0087890625,37.5380859375,0)" xlink:href="#ab"/><use transform="matrix(0.0087890625,0,0,0.0087890625,43.2509765625,0)" xlink:href="#U"/><use transform="matrix(0.0087890625,0,0,0.0087890625,53.7451171875,0)" xlink:href="#Z"/><use transform="matrix(0.0087890625,0,0,0.0087890625,64.7666015625,0)" xlink:href="#af"/><use transform="matrix(0.0087890625,0,0,0.0087890625,72.9755859375,0)" xlink:href="#ae"/><use transform="matrix(0.0087890625,0,0,0.0087890625,83.0830078125,0)" xlink:href="#ab"/></g><g id="l"><use transform="matrix(0.0087890625,0,0,0.0087890625,0,0)" xlink:href="#Z"/><use transform="matrix(0.0087890625,0,0,0.0087890625,11.021484375,0)" xlink:href="#ae"/><use transform="matrix(0.0087890625,0,0,0.0087890625,21.12890625,0)" xlink:href="#ab"/><use transform="matrix(0.0087890625,0,0,0.0087890625,26.841796875,0)" xlink:href="#U"/></g><path fill="#3a414a" d="M678-1118v154H420V0H240v-964H20v-154h220v-149c0-194 155-293 318-293 85 0 141 18 168 30l-50 154c-19-6-47-17-97-17-111 0-159 58-159 166v109h258" id="al"/><g id="m"><use transform="matrix(0.0087890625,0,0,0.0087890625,0,0)" xlink:href="#al"/><use transform="matrix(0.0087890625,0,0,0.0087890625,6.134765625,0)" xlink:href="#ak"/><use transform="matrix(0.0087890625,0,0,0.0087890625,16.927734375,0)" xlink:href="#ai"/><use transform="matrix(0.0087890625,0,0,0.0087890625,21.287109375,0)" xlink:href="#ai"/><use transform="matrix(0.0087890625,0,0,0.0087890625,25.646484375,0)" xlink:href="#ak"/><use transform="matrix(0.0087890625,0,0,0.0087890625,36.1142578125,0)" xlink:href="#ac"/></g><path fill="#3a414a" d="M128 359l88-567h206L266 359H128" id="am"/><g id="n"><use transform="matrix(0.0087890625,0,0,0.0087890625,0,0)" xlink:href="#W"/><use transform="matrix(0.0087890625,0,0,0.0087890625,11.49609375,0)" xlink:href="#X"/><use transform="matrix(0.0087890625,0,0,0.0087890625,23.58984375,0)" xlink:href="#am"/></g><path fill="#3a414a" d="M180 0v-1490h901v168H370v510h643v168H370V0H180" id="an"/><g id="o"><use transform="matrix(0.0087890625,0,0,0.0087890625,0,0)" xlink:href="#an"/><use transform="matrix(0.0087890625,0,0,0.0087890625,10.6259765625,0)" xlink:href="#X"/></g><g id="p"><use transform="matrix(0.0087890625,0,0,0.0087890625,0,0)" xlink:href="#al"/><use transform="matrix(0.0087890625,0,0,0.0087890625,6.134765625,0)" xlink:href="#ak"/><use transform="matrix(0.0087890625,0,0,0.0087890625,16.927734375,0)" xlink:href="#ai"/><use transform="matrix(0.0087890625,0,0,0.0087890625,21.287109375,0)" xlink:href="#ai"/><use transform="matrix(0.0087890625,0,0,0.0087890625,25.646484375,0)" xlink:href="#ak"/><use transform="matrix(0.0087890625,0,0,0.0087890625,36.1142578125,0)" xlink:href="#ac"/><use transform="matrix(0.0087890625,0,0,0.0087890625,50.51953125,0)" xlink:href="#U"/><use transform="matrix(0.0087890625,0,0,0.0087890625,61.013671875,0)" xlink:href="#V"/><use transform="matrix(0.0087890625,0,0,0.0087890625,67.7900390625,0)" xlink:href="#af"/><use transform="matrix(0.0087890625,0,0,0.0087890625,76.60546875,0)" xlink:href="#Y"/><use transform="matrix(0.0087890625,0,0,0.0087890625,80.96484375,0)" xlink:href="#Z"/></g><path fill="#3a414a" d="M611 442c-248 0-391-105-460-228l146-94c47 65 117 165 314 165 178 0 307-82 307-266v-224h-17C863-141 792-18 576-18c-268 0-472-195-472-546 0-346 197-568 476-568 216 0 288 133 326 193h17v-179h175V29c0 289-215 413-487 413zm-5-620c203 0 314-146 314-390 0-237-108-403-314-403-213 0-319 180-319 403 0 230 109 390 319 390" id="ao"/><g id="q"><use transform="matrix(0.0087890625,0,0,0.0087890625,0,0)" xlink:href="#al"/><use transform="matrix(0.0087890625,0,0,0.0087890625,6.134765625,0)" xlink:href="#ak"/><use transform="matrix(0.0087890625,0,0,0.0087890625,16.927734375,0)" xlink:href="#ai"/><use transform="matrix(0.0087890625,0,0,0.0087890625,21.287109375,0)" xlink:href="#ai"/><use transform="matrix(0.0087890625,0,0,0.0087890625,25.646484375,0)" xlink:href="#ak"/><use transform="matrix(0.0087890625,0,0,0.0087890625,36.1142578125,0)" xlink:href="#ac"/><use transform="matrix(0.0087890625,0,0,0.0087890625,50.8447265625,0)" xlink:href="#Y"/><use transform="matrix(0.0087890625,0,0,0.0087890625,55.2041015625,0)" xlink:href="#aa"/><use transform="matrix(0.0087890625,0,0,0.0087890625,65.8388671875,0)" xlink:href="#ao"/><use transform="matrix(0.0087890625,0,0,0.0087890625,76.8779296875,0)" xlink:href="#af"/><use transform="matrix(0.0087890625,0,0,0.0087890625,85.693359375,0)" xlink:href="#Y"/><use transform="matrix(0.0087890625,0,0,0.0087890625,90.052734375,0)" xlink:href="#Z"/></g><path fill="#3a414a" d="M158 418v-1536h174v179h20c37-59 106-193 324-193 279 0 474 222 474 576 0 356-194 580-473 580-213 0-288-135-325-197h-14v591H158zm492-555c209 0 317-186 317-421 0-232-105-413-317-413-206 0-314 166-314 413 0 249 111 421 314 421" id="ap"/><path fill="#3a414a" d="M126 0v-134l627-806v-11H146v-167h839v143L376-178v11h629V0H126" id="aq"/><path fill="#3a414a" d="M140 405l46-156c120 36 205 19 263-150l32-93L54-1118h197c107 313 237 620 324 950 87-331 219-637 326-950h196L606 167c-68 178-176 259-334 259-64 0-113-12-132-21" id="ar"/><g id="r"><use transform="matrix(0.0087890625,0,0,0.0087890625,0,0)" xlink:href="#ap"/><use transform="matrix(0.0087890625,0,0,0.0087890625,11.021484375,0)" xlink:href="#S"/><use transform="matrix(0.0087890625,0,0,0.0087890625,21.6650390625,0)" xlink:href="#aq"/><use transform="matrix(0.0087890625,0,0,0.0087890625,31.60546875,0)" xlink:href="#aq"/><use transform="matrix(0.0087890625,0,0,0.0087890625,41.5458984375,0)" xlink:href="#ai"/><use transform="matrix(0.0087890625,0,0,0.0087890625,45.9052734375,0)" xlink:href="#U"/><use transform="matrix(0.0087890625,0,0,0.0087890625,56.3994140625,0)" xlink:href="#af"/><use transform="matrix(0.0087890625,0,0,0.0087890625,64.6083984375,0)" xlink:href="#ad"/><use transform="matrix(0.0087890625,0,0,0.0087890625,75.0673828125,0)" xlink:href="#ae"/><use transform="matrix(0.0087890625,0,0,0.0087890625,85.1748046875,0)" xlink:href="#ab"/><use transform="matrix(0.0087890625,0,0,0.0087890625,90.8876953125,0)" xlink:href="#U"/><use transform="matrix(0.0087890625,0,0,0.0087890625,101.3818359375,0)" xlink:href="#ao"/><use transform="matrix(0.0087890625,0,0,0.0087890625,112.4208984375,0)" xlink:href="#ak"/><use transform="matrix(0.0087890625,0,0,0.0087890625,123.2138671875,0)" xlink:href="#V"/><use transform="matrix(0.0087890625,0,0,0.0087890625,130.271484375,0)" xlink:href="#ar"/></g><g id="s"><use transform="matrix(0.0087890625,0,0,0.0087890625,0,0)" xlink:href="#T"/><use transform="matrix(0.0087890625,0,0,0.0087890625,9.5009765625,0)" xlink:href="#U"/><use transform="matrix(0.0087890625,0,0,0.0087890625,19.9951171875,0)" xlink:href="#V"/><use transform="matrix(0.0087890625,0,0,0.0087890625,27.052734375,0)" xlink:href="#Y"/><use transform="matrix(0.0087890625,0,0,0.0087890625,31.412109375,0)" xlink:href="#ae"/><use transform="matrix(0.0087890625,0,0,0.0087890625,41.51953125,0)" xlink:href="#ai"/></g><g id="t"><use transform="matrix(0.0087890625,0,0,0.0087890625,0,0)" xlink:href="#T"/><use transform="matrix(0.0087890625,0,0,0.0087890625,9.5009765625,0)" xlink:href="#ak"/><use transform="matrix(0.0087890625,0,0,0.0087890625,20.2939453125,0)" xlink:href="#ai"/><use transform="matrix(0.0087890625,0,0,0.0087890625,24.7412109375,0)" xlink:href="#aj"/><use transform="matrix(0.0087890625,0,0,0.0087890625,34.505859375,0)" xlink:href="#U"/></g><g id="u"><use transform="matrix(0.0087890625,0,0,0.0087890625,0,0)" xlink:href="#an"/><use transform="matrix(0.0087890625,0,0,0.0087890625,10.6259765625,0)" xlink:href="#X"/></g><g id="v"><use transform="matrix(0.0087890625,0,0,0.0087890625,0,0)" xlink:href="#S"/><use transform="matrix(0.0087890625,0,0,0.0087890625,10.6435546875,0)" xlink:href="#T"/><use transform="matrix(0.0087890625,0,0,0.0087890625,20.14453125,0)" xlink:href="#U"/><use transform="matrix(0.0087890625,0,0,0.0087890625,30.638671875,0)" xlink:href="#V"/><use transform="matrix(0.0087890625,0,0,0.0087890625,37.4150390625,0)" xlink:href="#af"/><use transform="matrix(0.0087890625,0,0,0.0087890625,46.23046875,0)" xlink:href="#Y"/><use transform="matrix(0.0087890625,0,0,0.0087890625,50.58984375,0)" xlink:href="#Z"/></g><g id="w"><use transform="matrix(0.0087890625,0,0,0.0087890625,0,0)" xlink:href="#ad"/><use transform="matrix(0.0087890625,0,0,0.0087890625,10.458984375,0)" xlink:href="#ae"/><use transform="matrix(0.0087890625,0,0,0.0087890625,20.56640625,0)" xlink:href="#ab"/><use transform="matrix(0.0087890625,0,0,0.0087890625,26.279296875,0)" xlink:href="#U"/><use transform="matrix(0.0087890625,0,0,0.0087890625,36.7734375,0)" xlink:href="#ao"/><use transform="matrix(0.0087890625,0,0,0.0087890625,47.8125,0)" xlink:href="#ak"/><use transform="matrix(0.0087890625,0,0,0.0087890625,58.60546875,0)" xlink:href="#V"/><use transform="matrix(0.0087890625,0,0,0.0087890625,65.6630859375,0)" xlink:href="#ar"/><use transform="matrix(0.0087890625,0,0,0.0087890625,74.35546875,0)" xlink:href="#af"/><use transform="matrix(0.0087890625,0,0,0.0087890625,83.1708984375,0)" xlink:href="#Y"/><use transform="matrix(0.0087890625,0,0,0.0087890625,87.5302734375,0)" xlink:href="#Z"/></g><g id="x"><use transform="matrix(0.0087890625,0,0,0.0087890625,0,0)" xlink:href="#ap"/><use transform="matrix(0.0087890625,0,0,0.0087890625,11.021484375,0)" xlink:href="#U"/><use transform="matrix(0.0087890625,0,0,0.0087890625,21.515625,0)" xlink:href="#aa"/><use transform="matrix(0.0087890625,0,0,0.0087890625,32.150390625,0)" xlink:href="#ae"/><use transform="matrix(0.0087890625,0,0,0.0087890625,42.2578125,0)" xlink:href="#ai"/><use transform="matrix(0.0087890625,0,0,0.0087890625,46.880859375,0)" xlink:href="#ab"/><use transform="matrix(0.0087890625,0,0,0.0087890625,53.12109375,0)" xlink:href="#ar"/><use transform="matrix(0.0087890625,0,0,0.0087890625,61.8134765625,0)" xlink:href="#af"/><use transform="matrix(0.0087890625,0,0,0.0087890625,70.62890625,0)" xlink:href="#Y"/><use transform="matrix(0.0087890625,0,0,0.0087890625,74.98828125,0)" xlink:href="#Z"/></g><g id="y"><use transform="matrix(0.0087890625,0,0,0.0087890625,0,0)" xlink:href="#Y"/><use transform="matrix(0.0087890625,0,0,0.0087890625,4.359375,0)" xlink:href="#aa"/><use transform="matrix(0.0087890625,0,0,0.0087890625,14.994140625,0)" xlink:href="#ab"/></g><path fill="#3a414a" d="M419-1970V480H262v-2450h157" id="as"/><use transform="matrix(0.0087890625,0,0,0.0087890625,0,0)" xlink:href="#as" id="z"/><g id="A"><use transform="matrix(0.0087890625,0,0,0.0087890625,0,0)" xlink:href="#aa"/><use transform="matrix(0.0087890625,0,0,0.0087890625,10.634765625,0)" xlink:href="#S"/><use transform="matrix(0.0087890625,0,0,0.0087890625,21.2783203125,0)" xlink:href="#ai"/><use transform="matrix(0.0087890625,0,0,0.0087890625,25.6376953125,0)" xlink:href="#ai"/></g><g id="B"><use transform="matrix(0.0087890625,0,0,0.0087890625,0,0)" xlink:href="#V"/><use transform="matrix(0.0087890625,0,0,0.0087890625,6.4775390625,0)" xlink:href="#U"/><use transform="matrix(0.0087890625,0,0,0.0087890625,16.9716796875,0)" xlink:href="#T"/><use transform="matrix(0.0087890625,0,0,0.0087890625,26.47265625,0)" xlink:href="#S"/><use transform="matrix(0.0087890625,0,0,0.0087890625,37.1162109375,0)" xlink:href="#ai"/><use transform="matrix(0.0087890625,0,0,0.0087890625,41.7392578125,0)" xlink:href="#ab"/></g><path fill="#3a414a" d="M677 24c-213 0-288-135-325-197h-20V0H158v-1490h180v551h14c37-59 106-193 324-193 279 0 474 222 474 576 0 356-194 580-473 580zm-27-161c209 0 317-186 317-421 0-232-105-413-317-413-206 0-314 166-314 413 0 249 111 421 314 421" id="at"/><g id="C"><use transform="matrix(0.0087890625,0,0,0.0087890625,0,0)" xlink:href="#T"/><use transform="matrix(0.0087890625,0,0,0.0087890625,9.5009765625,0)" xlink:href="#ad"/><use transform="matrix(0.0087890625,0,0,0.0087890625,19.7841796875,0)" xlink:href="#V"/><use transform="matrix(0.0087890625,0,0,0.0087890625,26.560546875,0)" xlink:href="#ae"/><use transform="matrix(0.0087890625,0,0,0.0087890625,36.66796875,0)" xlink:href="#ah"/><use transform="matrix(0.0087890625,0,0,0.0087890625,52.435546875,0)" xlink:href="#at"/><use transform="matrix(0.0087890625,0,0,0.0087890625,63.45703125,0)" xlink:href="#ai"/><use transform="matrix(0.0087890625,0,0,0.0087890625,67.81640625,0)" xlink:href="#U"/></g><g id="D"><use transform="matrix(0.0087890625,0,0,0.0087890625,0,0)" xlink:href="#T"/><use transform="matrix(0.0087890625,0,0,0.0087890625,9.5009765625,0)" xlink:href="#ak"/><use transform="matrix(0.0087890625,0,0,0.0087890625,20.2939453125,0)" xlink:href="#ai"/><use transform="matrix(0.0087890625,0,0,0.0087890625,24.6533203125,0)" xlink:href="#S"/><use transform="matrix(0.0087890625,0,0,0.0087890625,35.296875,0)" xlink:href="#ab"/><use transform="matrix(0.0087890625,0,0,0.0087890625,41.185546875,0)" xlink:href="#Y"/><use transform="matrix(0.0087890625,0,0,0.0087890625,45.544921875,0)" xlink:href="#ak"/><use transform="matrix(0.0087890625,0,0,0.0087890625,56.337890625,0)" xlink:href="#aa"/></g><g id="E"><use transform="matrix(0.0087890625,0,0,0.0087890625,0,0)" xlink:href="#ab"/><use transform="matrix(0.0087890625,0,0,0.0087890625,5.712890625,0)" xlink:href="#U"/><use transform="matrix(0.0087890625,0,0,0.0087890625,15.802734375,0)" xlink:href="#ag"/><use transform="matrix(0.0087890625,0,0,0.0087890625,25.98046875,0)" xlink:href="#ab"/></g><g id="F"><use transform="matrix(0.0087890625,0,0,0.0087890625,0,0)" xlink:href="#aa"/><use transform="matrix(0.0087890625,0,0,0.0087890625,10.634765625,0)" xlink:href="#ak"/><use transform="matrix(0.0087890625,0,0,0.0087890625,21.427734375,0)" xlink:href="#ab"/><use transform="matrix(0.0087890625,0,0,0.0087890625,27.140625,0)" xlink:href="#U"/></g><g id="G"><use transform="matrix(0.0087890625,0,0,0.0087890625,0,0)" xlink:href="#ae"/><use transform="matrix(0.0087890625,0,0,0.0087890625,9.84375,0)" xlink:href="#aj"/><use transform="matrix(0.0087890625,0,0,0.0087890625,19.6083984375,0)" xlink:href="#U"/><use transform="matrix(0.0087890625,0,0,0.0087890625,30.1025390625,0)" xlink:href="#V"/><use transform="matrix(0.0087890625,0,0,0.0087890625,36.87890625,0)" xlink:href="#ae"/><use transform="matrix(0.0087890625,0,0,0.0087890625,46.986328125,0)" xlink:href="#ao"/><use transform="matrix(0.0087890625,0,0,0.0087890625,58.025390625,0)" xlink:href="#U"/></g><g id="H"><use transform="matrix(0.0087890625,0,0,0.0087890625,0,0)" xlink:href="#ap"/><use transform="matrix(0.0087890625,0,0,0.0087890625,11.021484375,0)" xlink:href="#U"/><use transform="matrix(0.0087890625,0,0,0.0087890625,21.515625,0)" xlink:href="#aa"/><use transform="matrix(0.0087890625,0,0,0.0087890625,32.150390625,0)" xlink:href="#ae"/><use transform="matrix(0.0087890625,0,0,0.0087890625,42.2578125,0)" xlink:href="#ai"/><use transform="matrix(0.0087890625,0,0,0.0087890625,46.880859375,0)" xlink:href="#ab"/><use transform="matrix(0.0087890625,0,0,0.0087890625,53.12109375,0)" xlink:href="#ar"/></g><g id="I"><use transform="matrix(0.0087890625,0,0,0.0087890625,0,0)" xlink:href="#ab"/><use transform="matrix(0.0087890625,0,0,0.0087890625,6.240234375,0)" xlink:href="#ar"/><use transform="matrix(0.0087890625,0,0,0.0087890625,16.3564453125,0)" xlink:href="#ap"/><use transform="matrix(0.0087890625,0,0,0.0087890625,27.3779296875,0)" xlink:href="#U"/></g><g id="J"><use transform="matrix(0.0087890625,0,0,0.0087890625,0,0)" xlink:href="#ap"/><use transform="matrix(0.0087890625,0,0,0.0087890625,11.021484375,0)" xlink:href="#ak"/><use transform="matrix(0.0087890625,0,0,0.0087890625,21.814453125,0)" xlink:href="#T"/><use transform="matrix(0.0087890625,0,0,0.0087890625,31.3154296875,0)" xlink:href="#ab"/></g><g id="K"><use transform="matrix(0.0087890625,0,0,0.0087890625,0,0)" xlink:href="#ae"/><use transform="matrix(0.0087890625,0,0,0.0087890625,9.84375,0)" xlink:href="#aj"/><use transform="matrix(0.0087890625,0,0,0.0087890625,19.6083984375,0)" xlink:href="#U"/><use transform="matrix(0.0087890625,0,0,0.0087890625,30.1025390625,0)" xlink:href="#V"/><use transform="matrix(0.0087890625,0,0,0.0087890625,36.87890625,0)" xlink:href="#ae"/><use transform="matrix(0.0087890625,0,0,0.0087890625,46.986328125,0)" xlink:href="#ao"/><use transform="matrix(0.0087890625,0,0,0.0087890625,58.025390625,0)" xlink:href="#U"/><use transform="matrix(0.0087890625,0,0,0.0087890625,68.51953125,0)" xlink:href="#af"/><use transform="matrix(0.0087890625,0,0,0.0087890625,77.3349609375,0)" xlink:href="#Y"/><use transform="matrix(0.0087890625,0,0,0.0087890625,81.6943359375,0)" xlink:href="#Z"/></g><g id="L"><use transform="matrix(0.0087890625,0,0,0.0087890625,0,0)" xlink:href="#T"/><use transform="matrix(0.0087890625,0,0,0.0087890625,9.5009765625,0)" xlink:href="#ak"/><use transform="matrix(0.0087890625,0,0,0.0087890625,20.2939453125,0)" xlink:href="#ai"/><use transform="matrix(0.0087890625,0,0,0.0087890625,24.7412109375,0)" xlink:href="#aj"/><use transform="matrix(0.0087890625,0,0,0.0087890625,34.505859375,0)" xlink:href="#U"/><use transform="matrix(0.0087890625,0,0,0.0087890625,45,0)" xlink:href="#af"/><use transform="matrix(0.0087890625,0,0,0.0087890625,53.8154296875,0)" xlink:href="#Y"/><use transform="matrix(0.0087890625,0,0,0.0087890625,58.1748046875,0)" xlink:href="#Z"/></g><g id="M"><use transform="matrix(0.0087890625,0,0,0.0087890625,0,0)" xlink:href="#Z"/><use transform="matrix(0.0087890625,0,0,0.0087890625,11.021484375,0)" xlink:href="#U"/><use transform="matrix(0.0087890625,0,0,0.0087890625,21.515625,0)" xlink:href="#T"/><use transform="matrix(0.0087890625,0,0,0.0087890625,31.0166015625,0)" xlink:href="#ad"/><use transform="matrix(0.0087890625,0,0,0.0087890625,41.2998046875,0)" xlink:href="#V"/><use transform="matrix(0.0087890625,0,0,0.0087890625,48.357421875,0)" xlink:href="#Y"/><use transform="matrix(0.0087890625,0,0,0.0087890625,52.716796875,0)" xlink:href="#ap"/><use transform="matrix(0.0087890625,0,0,0.0087890625,63.73828125,0)" xlink:href="#ab"/><use transform="matrix(0.0087890625,0,0,0.0087890625,69.626953125,0)" xlink:href="#Y"/><use transform="matrix(0.0087890625,0,0,0.0087890625,73.986328125,0)" xlink:href="#ak"/><use transform="matrix(0.0087890625,0,0,0.0087890625,84.779296875,0)" xlink:href="#aa"/></g><path fill="#3a414a" d="M158 0v-1490h180v865h22l478-493h223L593-638 1096 0H865L456-523 338-412V0H158" id="au"/><g id="N"><use transform="matrix(0.0087890625,0,0,0.0087890625,0,0)" xlink:href="#ai"/><use transform="matrix(0.0087890625,0,0,0.0087890625,4.359375,0)" xlink:href="#Y"/><use transform="matrix(0.0087890625,0,0,0.0087890625,8.71875,0)" xlink:href="#au"/><use transform="matrix(0.0087890625,0,0,0.0087890625,18.193359375,0)" xlink:href="#U"/></g><g id="O"><use transform="matrix(0.0087890625,0,0,0.0087890625,0,0)" xlink:href="#ap"/><use transform="matrix(0.0087890625,0,0,0.0087890625,11.021484375,0)" xlink:href="#ak"/><use transform="matrix(0.0087890625,0,0,0.0087890625,21.814453125,0)" xlink:href="#T"/><use transform="matrix(0.0087890625,0,0,0.0087890625,31.3154296875,0)" xlink:href="#ab"/><use transform="matrix(0.0087890625,0,0,0.0087890625,37.2041015625,0)" xlink:href="#af"/><use transform="matrix(0.0087890625,0,0,0.0087890625,46.01953125,0)" xlink:href="#Y"/><use transform="matrix(0.0087890625,0,0,0.0087890625,50.37890625,0)" xlink:href="#Z"/></g><g id="P"><use transform="matrix(0.0087890625,0,0,0.0087890625,0,0)" xlink:href="#ad"/><use transform="matrix(0.0087890625,0,0,0.0087890625,10.283203125,0)" xlink:href="#ak"/><use transform="matrix(0.0087890625,0,0,0.0087890625,21.076171875,0)" xlink:href="#ah"/><use transform="matrix(0.0087890625,0,0,0.0087890625,36.84375,0)" xlink:href="#ah"/><use transform="matrix(0.0087890625,0,0,0.0087890625,52.611328125,0)" xlink:href="#U"/><use transform="matrix(0.0087890625,0,0,0.0087890625,63.10546875,0)" xlink:href="#aa"/><use transform="matrix(0.0087890625,0,0,0.0087890625,73.740234375,0)" xlink:href="#ab"/></g><g id="Q"><use transform="matrix(0.0087890625,0,0,0.0087890625,0,0)" xlink:href="#ad"/><use transform="matrix(0.0087890625,0,0,0.0087890625,10.283203125,0)" xlink:href="#ak"/><use transform="matrix(0.0087890625,0,0,0.0087890625,21.076171875,0)" xlink:href="#aa"/><use transform="matrix(0.0087890625,0,0,0.0087890625,31.7109375,0)" xlink:href="#ab"/><use transform="matrix(0.0087890625,0,0,0.0087890625,37.423828125,0)" xlink:href="#U"/><use transform="matrix(0.0087890625,0,0,0.0087890625,47.91796875,0)" xlink:href="#aa"/><use transform="matrix(0.0087890625,0,0,0.0087890625,58.552734375,0)" xlink:href="#ab"/></g><g id="R"><use transform="matrix(0.0087890625,0,0,0.0087890625,0,0)" xlink:href="#ae"/><use transform="matrix(0.0087890625,0,0,0.0087890625,9.84375,0)" xlink:href="#aj"/><use transform="matrix(0.0087890625,0,0,0.0087890625,19.6083984375,0)" xlink:href="#U"/><use transform="matrix(0.0087890625,0,0,0.0087890625,30.1025390625,0)" xlink:href="#V"/><use transform="matrix(0.0087890625,0,0,0.0087890625,36.87890625,0)" xlink:href="#ae"/><use transform="matrix(0.0087890625,0,0,0.0087890625,46.986328125,0)" xlink:href="#ao"/><use transform="matrix(0.0087890625,0,0,0.0087890625,58.025390625,0)" xlink:href="#U"/><use transform="matrix(0.0087890625,0,0,0.0087890625,68.51953125,0)" xlink:href="#af"/><use transform="matrix(0.0087890625,0,0,0.0087890625,76.728515625,0)" xlink:href="#T"/><use transform="matrix(0.0087890625,0,0,0.0087890625,86.2294921875,0)" xlink:href="#ak"/><use transform="matrix(0.0087890625,0,0,0.0087890625,97.0224609375,0)" xlink:href="#ai"/><use transform="matrix(0.0087890625,0,0,0.0087890625,101.4697265625,0)" xlink:href="#aj"/><use transform="matrix(0.0087890625,0,0,0.0087890625,111.234375,0)" xlink:href="#U"/></g></defs></g></svg>